<svg width="550" height="571" viewBox="0 0 550 571" fill="none" xmlns="http://www.w3.org/2000/svg">
<path opacity="0.3" d="M392.882 136.465C393.111 136.498 393.344 136.478 393.563 136.405C393.782 136.331 393.982 136.208 394.144 136.044C394.307 135.88 394.429 135.68 394.501 135.46C394.572 135.24 394.592 135.007 394.556 134.779C394.521 134.55 394.433 134.333 394.299 134.145C394.165 133.957 393.988 133.803 393.784 133.695C393.579 133.587 393.352 133.529 393.121 133.525C392.89 133.521 392.661 133.571 392.453 133.672L386.853 134.544L386.69 133.48L392.291 132.608C392.576 132.47 392.809 132.245 392.956 131.965C393.103 131.685 393.157 131.366 393.109 131.053C393.061 130.741 392.914 130.452 392.69 130.229C392.465 130.006 392.175 129.861 391.862 129.815L386.247 130.702L385.05 122.973L368.234 107.782L147.95 512.677L164.826 524.085L440.775 481.083L437.701 461.282L443.302 460.41C443.532 460.447 443.768 460.43 443.99 460.359C444.212 460.287 444.414 460.165 444.579 460C444.745 459.836 444.869 459.635 444.942 459.414C445.015 459.192 445.034 458.957 444.999 458.726C444.963 458.496 444.874 458.277 444.737 458.088C444.601 457.899 444.422 457.744 444.215 457.638C444.007 457.531 443.778 457.475 443.545 457.474C443.311 457.473 443.081 457.527 442.873 457.632L437.258 458.504L437.095 457.425L442.711 456.553C442.893 456.526 443.067 456.463 443.225 456.368C443.382 456.273 443.519 456.148 443.628 455.999C443.736 455.851 443.814 455.682 443.857 455.503C443.9 455.324 443.907 455.139 443.878 454.957C443.806 454.594 443.601 454.272 443.303 454.053C443.004 453.834 442.635 453.735 442.267 453.775L436.667 454.647L435.041 444.229L440.657 443.357C440.929 443.218 441.152 442.998 441.294 442.727C441.436 442.456 441.491 442.148 441.45 441.845C441.41 441.541 441.276 441.258 441.068 441.034C440.859 440.81 440.587 440.656 440.287 440.594L434.687 441.466L434.524 440.402L440.125 439.53C440.409 439.392 440.643 439.167 440.79 438.887C440.937 438.607 440.991 438.288 440.943 437.975C440.895 437.662 440.748 437.373 440.523 437.151C440.299 436.928 440.009 436.783 439.696 436.737L434.081 437.609L432.47 427.265L438.071 426.378C438.253 426.353 438.429 426.292 438.588 426.197C438.746 426.102 438.884 425.977 438.993 425.828C439.102 425.679 439.18 425.51 439.222 425.33C439.264 425.15 439.269 424.964 439.238 424.782C439.166 424.422 438.963 424.102 438.668 423.883C438.373 423.665 438.007 423.564 437.642 423.6L432.027 424.472L431.864 423.408L437.465 422.536C437.749 422.399 437.983 422.173 438.13 421.894C438.277 421.614 438.331 421.294 438.283 420.981C438.235 420.669 438.088 420.38 437.863 420.157C437.639 419.934 437.349 419.789 437.036 419.743L431.436 420.615L429.81 410.271L435.411 409.399C435.695 409.262 435.929 409.036 436.076 408.757C436.223 408.477 436.277 408.157 436.229 407.844C436.181 407.532 436.034 407.243 435.809 407.02C435.585 406.797 435.295 406.652 434.982 406.606L429.382 407.478L429.204 406.414L434.82 405.542C435.18 405.467 435.499 405.261 435.715 404.963C435.931 404.665 436.028 404.297 435.987 403.932C435.962 403.749 435.9 403.573 435.806 403.415C435.711 403.256 435.586 403.118 435.437 403.009C435.288 402.9 435.118 402.822 434.939 402.78C434.759 402.738 434.573 402.733 434.391 402.764L428.776 403.636L427.165 393.292L432.766 392.42C433.126 392.345 433.445 392.139 433.661 391.841C433.877 391.543 433.974 391.175 433.933 390.81C433.908 390.627 433.846 390.451 433.752 390.292C433.657 390.134 433.532 389.996 433.383 389.887C433.234 389.778 433.064 389.7 432.885 389.658C432.705 389.616 432.519 389.611 432.337 389.642L426.722 390.514L426.559 389.435L432.16 388.563C432.39 388.601 432.626 388.583 432.848 388.512C433.07 388.441 433.272 388.318 433.437 388.154C433.603 387.99 433.727 387.789 433.8 387.567C433.873 387.346 433.892 387.11 433.857 386.88C433.821 386.649 433.732 386.43 433.595 386.241C433.459 386.052 433.28 385.898 433.073 385.791C432.865 385.684 432.636 385.628 432.403 385.627C432.169 385.626 431.939 385.68 431.731 385.785L426.131 386.657L424.505 376.239L430.106 375.367C430.336 375.405 430.572 375.387 430.794 375.316C431.016 375.245 431.218 375.122 431.383 374.958C431.549 374.794 431.673 374.593 431.746 374.371C431.819 374.15 431.838 373.914 431.803 373.683C431.767 373.453 431.678 373.234 431.541 373.045C431.405 372.856 431.226 372.702 431.019 372.595C430.811 372.488 430.582 372.432 430.349 372.431C430.115 372.43 429.885 372.484 429.677 372.589L424.077 373.461L423.899 372.382L429.515 371.511C429.745 371.546 429.98 371.527 430.201 371.454C430.422 371.381 430.623 371.258 430.788 371.092C430.952 370.927 431.075 370.726 431.146 370.504C431.218 370.283 431.236 370.047 431.199 369.817C431.163 369.587 431.072 369.369 430.935 369.181C430.798 368.993 430.619 368.839 430.411 368.734C430.204 368.628 429.974 368.573 429.741 368.572C429.508 368.572 429.279 368.627 429.071 368.732L423.471 369.604L421.845 359.186L427.461 358.315C427.691 358.35 427.926 358.331 428.147 358.258C428.368 358.185 428.569 358.062 428.734 357.896C428.898 357.731 429.021 357.53 429.092 357.308C429.164 357.087 429.182 356.851 429.145 356.621C429.109 356.391 429.018 356.173 428.881 355.985C428.744 355.797 428.565 355.643 428.357 355.538C428.15 355.432 427.92 355.377 427.687 355.376C427.454 355.376 427.225 355.431 427.017 355.536L421.417 356.408L421.254 355.33L426.855 354.458C427.215 354.386 427.535 354.183 427.754 353.888C427.972 353.593 428.073 353.227 428.037 352.862C427.965 352.499 427.76 352.176 427.461 351.957C427.163 351.738 426.794 351.639 426.426 351.68L420.811 352.551L419.2 342.207L424.801 341.336C425.161 341.264 425.481 341.061 425.7 340.766C425.918 340.471 426.019 340.105 425.983 339.74C425.911 339.377 425.706 339.054 425.408 338.835C425.109 338.616 424.74 338.517 424.372 338.557L418.772 339.429L418.594 338.365L424.21 337.494C424.495 337.355 424.728 337.129 424.874 336.847C425.021 336.566 425.073 336.246 425.023 335.933C424.973 335.62 424.824 335.331 424.598 335.109C424.372 334.887 424.08 334.744 423.766 334.701L418.166 335.572L416.54 325.228L422.156 324.357C422.441 324.218 422.673 323.992 422.82 323.711C422.966 323.43 423.019 323.109 422.969 322.796C422.919 322.483 422.77 322.194 422.544 321.972C422.318 321.75 422.026 321.607 421.712 321.564L416.112 322.436L415.949 321.372L421.55 320.5C421.834 320.362 422.068 320.137 422.215 319.857C422.362 319.577 422.416 319.257 422.368 318.945C422.32 318.632 422.173 318.343 421.948 318.12C421.724 317.898 421.434 317.753 421.121 317.707L415.506 318.594L413.895 308.249L419.496 307.378C419.78 307.24 420.014 307.015 420.161 306.735C420.308 306.455 420.362 306.135 420.314 305.823C420.266 305.51 420.119 305.221 419.894 304.998C419.67 304.775 419.38 304.631 419.067 304.585L413.452 305.457L413.289 304.393L418.89 303.521C419.12 303.558 419.356 303.541 419.578 303.469C419.8 303.398 420.002 303.275 420.167 303.111C420.333 302.947 420.457 302.746 420.53 302.524C420.603 302.303 420.622 302.067 420.587 301.837C420.551 301.606 420.462 301.388 420.326 301.198C420.189 301.009 420.01 300.855 419.803 300.748C419.595 300.642 419.366 300.585 419.133 300.584C418.899 300.583 418.669 300.638 418.461 300.743L412.861 301.615L411.235 291.197L416.836 290.325C417.066 290.362 417.302 290.344 417.524 290.273C417.746 290.202 417.948 290.079 418.113 289.915C418.279 289.751 418.403 289.55 418.476 289.328C418.549 289.107 418.568 288.871 418.533 288.641C418.497 288.41 418.408 288.192 418.271 288.002C418.135 287.813 417.956 287.659 417.749 287.552C417.541 287.446 417.312 287.389 417.079 287.388C416.845 287.387 416.615 287.442 416.407 287.547L410.807 288.418L410.644 287.34L416.245 286.468C416.523 286.327 416.75 286.102 416.893 285.825C417.036 285.547 417.087 285.232 417.04 284.923C416.992 284.615 416.848 284.329 416.628 284.108C416.408 283.886 416.124 283.74 415.816 283.69L410.201 284.562L408.59 274.218L414.191 273.346C414.469 273.205 414.696 272.98 414.839 272.703C414.982 272.425 415.033 272.109 414.986 271.801C414.938 271.493 414.794 271.207 414.574 270.986C414.354 270.764 414.07 270.618 413.762 270.568L408.147 271.44L407.984 270.361L413.585 269.489C413.945 269.417 414.265 269.214 414.484 268.919C414.702 268.624 414.803 268.258 414.767 267.893C414.695 267.53 414.49 267.207 414.192 266.988C413.893 266.77 413.524 266.671 413.156 266.711L407.556 267.583L405.93 257.165L411.531 256.293C411.761 256.33 411.997 256.313 412.219 256.241C412.441 256.17 412.643 256.048 412.808 255.883C412.974 255.719 413.098 255.518 413.171 255.297C413.244 255.075 413.263 254.839 413.228 254.609C413.192 254.379 413.103 254.16 412.966 253.971C412.83 253.781 412.651 253.627 412.444 253.52C412.236 253.414 412.007 253.358 411.774 253.357C411.54 253.356 411.31 253.41 411.102 253.515L405.502 254.387L405.324 253.323L410.94 252.451C411.225 252.312 411.458 252.086 411.604 251.805C411.751 251.524 411.803 251.203 411.753 250.89C411.704 250.577 411.555 250.288 411.328 250.066C411.102 249.845 410.81 249.701 410.496 249.658L404.896 250.53L403.27 240.186L408.886 239.299C409.164 239.159 409.391 238.933 409.534 238.656C409.677 238.378 409.728 238.063 409.681 237.754C409.633 237.446 409.489 237.16 409.269 236.939C409.049 236.717 408.765 236.571 408.457 236.521L402.842 237.393L402.679 236.329L408.28 235.457C408.565 235.32 408.798 235.094 408.945 234.814C409.092 234.535 409.146 234.215 409.098 233.902C409.05 233.59 408.903 233.301 408.678 233.078C408.454 232.855 408.164 232.71 407.851 232.664L402.251 233.536L400.625 223.192L406.226 222.32C406.454 222.354 406.688 222.333 406.907 222.26C407.126 222.187 407.325 222.063 407.488 221.899C407.651 221.735 407.773 221.535 407.845 221.316C407.916 221.096 407.935 220.862 407.9 220.634C407.865 220.405 407.777 220.188 407.643 220C407.509 219.812 407.332 219.658 407.128 219.55C406.923 219.443 406.696 219.385 406.465 219.381C406.234 219.377 406.005 219.427 405.797 219.527L400.197 220.399L400.019 219.335L405.635 218.463C405.865 218.499 406.1 218.48 406.321 218.407C406.542 218.334 406.743 218.21 406.908 218.045C407.072 217.88 407.195 217.679 407.266 217.457C407.338 217.235 407.356 217 407.319 216.77C407.283 216.54 407.192 216.322 407.055 216.134C406.918 215.945 406.739 215.792 406.531 215.686C406.324 215.581 406.094 215.525 405.861 215.525C405.629 215.525 405.399 215.58 405.191 215.685L399.591 216.557L397.965 206.213L403.581 205.341C403.859 205.2 404.086 204.973 404.228 204.695C404.37 204.416 404.42 204.1 404.371 203.791C404.322 203.482 404.176 203.197 403.954 202.976C403.732 202.755 403.446 202.611 403.137 202.563L397.537 203.435L397.374 202.356L402.975 201.484C403.205 201.522 403.441 201.504 403.663 201.433C403.885 201.362 404.087 201.239 404.252 201.075C404.418 200.911 404.542 200.709 404.615 200.488C404.688 200.267 404.707 200.031 404.672 199.8C404.636 199.57 404.547 199.351 404.41 199.162C404.274 198.973 404.095 198.819 403.888 198.712C403.68 198.605 403.451 198.549 403.218 198.548C402.984 198.547 402.754 198.601 402.546 198.706L396.931 199.578L395.32 189.16L400.921 188.288C401.151 188.326 401.387 188.308 401.609 188.237C401.831 188.166 402.033 188.043 402.198 187.879C402.364 187.715 402.488 187.513 402.561 187.292C402.634 187.07 402.653 186.835 402.618 186.604C402.582 186.374 402.493 186.155 402.356 185.966C402.22 185.777 402.041 185.623 401.834 185.516C401.626 185.409 401.397 185.353 401.164 185.352C400.93 185.351 400.7 185.405 400.492 185.51L394.877 186.382L394.714 185.303L400.33 184.432C400.608 184.29 400.835 184.064 400.977 183.785C401.119 183.506 401.169 183.19 401.12 182.881C401.071 182.572 400.925 182.287 400.703 182.066C400.481 181.846 400.195 181.701 399.886 181.653L394.286 182.525L392.66 172.107L398.276 171.236C398.554 171.094 398.781 170.868 398.923 170.589C399.065 170.31 399.115 169.994 399.066 169.685C399.017 169.376 398.871 169.091 398.649 168.87C398.427 168.65 398.141 168.505 397.832 168.457L392.232 169.329L392.069 168.251L397.67 167.379C398.03 167.307 398.35 167.104 398.569 166.809C398.787 166.514 398.888 166.148 398.852 165.783C398.78 165.42 398.575 165.097 398.277 164.878C397.978 164.659 397.609 164.56 397.241 164.601L391.626 165.472L390.015 155.054L395.616 154.183C395.976 154.111 396.296 153.908 396.515 153.613C396.733 153.318 396.834 152.952 396.798 152.587C396.726 152.224 396.521 151.901 396.223 151.682C395.924 151.463 395.555 151.364 395.187 151.405L389.572 152.276L389.409 151.212L395.01 150.341C395.295 150.203 395.528 149.978 395.675 149.698C395.822 149.418 395.876 149.098 395.828 148.786C395.78 148.473 395.633 148.184 395.409 147.961C395.184 147.738 394.894 147.593 394.581 147.548L388.981 148.42L387.355 138.076L392.882 136.465Z" fill="#333333"/>
<path d="M156.861 516.534L412.728 476.724L355.629 109.733L99.7471 149.631C98.1955 149.873 96.7066 150.417 95.3655 151.234C94.0245 152.051 92.8575 153.124 91.9312 154.392C91.005 155.66 90.3376 157.098 89.9671 158.624C89.5967 160.15 89.5306 161.734 89.7725 163.285L143.266 506.559C143.75 509.683 145.453 512.487 148.002 514.356C150.55 516.226 153.736 517.009 156.861 516.534Z" fill="#333333" stroke="#333333" stroke-miterlimit="10" stroke-linecap="round"/>
<path d="M161.612 503.706L147.011 505.979C145.985 506.139 144.937 505.884 144.099 505.272C143.26 504.659 142.699 503.738 142.539 502.712L137.401 469.713C137.242 468.687 137.496 467.64 138.109 466.801C138.721 465.962 139.642 465.401 140.668 465.242L155.269 462.968L161.612 503.706Z" fill="#EEEEEE" stroke="#333333" stroke-miterlimit="10" stroke-linecap="round"/>
<path d="M154.957 460.883L140.356 463.156C139.33 463.316 138.282 463.062 137.444 462.449C136.605 461.836 136.044 460.916 135.884 459.889L130.746 426.891C130.586 425.864 130.841 424.817 131.454 423.978C132.066 423.139 132.987 422.579 134.013 422.419L148.614 420.145L154.957 460.883Z" fill="#40A578" stroke="#333333" stroke-miterlimit="10" stroke-linecap="round"/>
<path d="M148.276 417.987L133.675 420.26C132.649 420.42 131.601 420.166 130.762 419.553C129.924 418.941 129.363 418.02 129.203 416.994L124.065 383.995C123.905 382.969 124.16 381.921 124.772 381.082C125.385 380.244 126.306 379.683 127.332 379.523L141.933 377.25L148.276 417.987Z" fill="#EEEEEE" stroke="#333333" stroke-miterlimit="10" stroke-linecap="round"/>
<path d="M141.623 375.179L127.022 377.452C125.996 377.612 124.948 377.358 124.109 376.745C123.271 376.133 122.71 375.212 122.55 374.186L117.412 341.187C117.252 340.161 117.507 339.113 118.119 338.274C118.732 337.436 119.653 336.875 120.679 336.715L135.28 334.442L141.623 375.179Z" fill="#40A578" stroke="#333333" stroke-miterlimit="10" stroke-linecap="round"/>
<path d="M114.066 293.886L122.8 292.527L100.53 149.483L368.234 107.827L425.333 474.803L157.644 516.416L129.139 333.267L120.406 334.627C119.385 334.779 118.345 334.522 117.515 333.909C116.684 333.297 116.129 332.381 115.972 331.361L110.756 298.364C110.677 297.852 110.699 297.329 110.823 296.827C110.947 296.324 111.169 295.85 111.477 295.434C111.785 295.018 112.172 294.666 112.616 294.401C113.061 294.135 113.554 293.96 114.066 293.886Z" fill="#EEEEEE" stroke="#333333" stroke-miterlimit="10" stroke-linecap="round"/>
<path d="M142.689 227.625L143.576 247.678L243.47 231.379L240.854 214.592L142.689 227.625Z" fill="#40A578"/>
<path d="M353.353 130.273C353.501 131.3 353.951 132.261 354.645 133.031C355.34 133.802 356.249 134.349 357.255 134.602C358.262 134.855 359.321 134.803 360.298 134.453C361.274 134.102 362.125 133.469 362.741 132.634C363.357 131.799 363.711 130.799 363.757 129.762C363.803 128.725 363.54 127.698 363.001 126.811C362.462 125.925 361.671 125.218 360.729 124.782C359.787 124.346 358.737 124.2 357.712 124.362C356.355 124.577 355.137 125.318 354.321 126.424C353.505 127.53 353.157 128.913 353.353 130.273Z" fill="#333333" stroke="#333333" stroke-miterlimit="10" stroke-linecap="round"/>
<path d="M359.013 128.648L374.647 126.209C375.007 126.134 375.326 125.928 375.542 125.63C375.758 125.332 375.855 124.964 375.814 124.599C375.739 124.239 375.533 123.919 375.235 123.703C374.937 123.488 374.569 123.391 374.203 123.431L358.628 125.84C358.265 125.912 357.943 126.117 357.724 126.415C357.505 126.714 357.406 127.083 357.446 127.451C357.514 127.808 357.712 128.128 358.001 128.349C358.29 128.569 358.65 128.676 359.013 128.648Z" fill="#EEEEEE" stroke="#333333" stroke-miterlimit="10" stroke-linecap="round"/>
<path d="M359.663 132.49L375.268 130.066C375.63 129.994 375.953 129.789 376.172 129.491C376.391 129.193 376.49 128.823 376.45 128.456C376.378 128.093 376.173 127.77 375.874 127.551C375.576 127.332 375.207 127.233 374.839 127.273L359.205 129.712C358.845 129.787 358.525 129.993 358.309 130.291C358.094 130.589 357.997 130.957 358.037 131.322C358.112 131.685 358.321 132.007 358.622 132.223C358.923 132.439 359.295 132.534 359.663 132.49Z" fill="#EEEEEE" stroke="#333333" stroke-miterlimit="10" stroke-linecap="round"/>
<path d="M356.057 147.311C356.202 148.336 356.648 149.295 357.339 150.066C358.029 150.838 358.933 151.387 359.935 151.645C360.938 151.902 361.994 151.856 362.971 151.513C363.948 151.17 364.8 150.545 365.422 149.717C366.043 148.888 366.404 147.895 366.46 146.861C366.516 145.827 366.264 144.8 365.736 143.91C365.208 143.019 364.428 142.306 363.494 141.859C362.56 141.412 361.515 141.253 360.49 141.4C359.119 141.598 357.883 142.331 357.052 143.439C356.221 144.547 355.863 145.94 356.057 147.311Z" fill="#333333" stroke="#333333" stroke-miterlimit="10" stroke-linecap="round"/>
<path d="M361.717 145.686L377.336 143.262C377.699 143.191 378.022 142.985 378.241 142.687C378.46 142.389 378.559 142.019 378.518 141.652C378.447 141.289 378.241 140.966 377.943 140.747C377.645 140.528 377.275 140.429 376.908 140.469L361.273 142.908C360.913 142.983 360.594 143.189 360.378 143.487C360.162 143.785 360.065 144.153 360.106 144.518C360.181 144.879 360.388 145.198 360.686 145.414C360.984 145.63 361.351 145.727 361.717 145.686Z" fill="#EEEEEE" stroke="#333333" stroke-miterlimit="10" stroke-linecap="round"/>
<path d="M362.308 149.483L377.942 147.06C378.302 146.985 378.622 146.778 378.837 146.48C379.053 146.183 379.15 145.815 379.11 145.449C379.038 145.086 378.833 144.764 378.534 144.545C378.236 144.326 377.867 144.227 377.499 144.267L361.879 146.705C361.517 146.777 361.194 146.982 360.975 147.281C360.756 147.579 360.657 147.948 360.697 148.316C360.772 148.676 360.979 148.995 361.277 149.211C361.575 149.427 361.942 149.524 362.308 149.483Z" fill="#EEEEEE" stroke="#333333" stroke-miterlimit="10" stroke-linecap="round"/>
<path d="M358.658 164.364C358.806 165.391 359.255 166.352 359.95 167.122C360.645 167.893 361.554 168.44 362.56 168.693C363.567 168.946 364.626 168.894 365.603 168.544C366.579 168.193 367.43 167.56 368.046 166.725C368.662 165.89 369.016 164.89 369.062 163.853C369.108 162.816 368.845 161.789 368.306 160.902C367.767 160.016 366.976 159.309 366.034 158.873C365.092 158.437 364.042 158.291 363.017 158.453C361.66 158.668 360.442 159.409 359.626 160.515C358.81 161.621 358.462 163.004 358.658 164.364Z" fill="#333333" stroke="#333333" stroke-miterlimit="10" stroke-linecap="round"/>
<path d="M364.362 162.783L379.996 160.36C380.356 160.285 380.676 160.078 380.891 159.78C381.107 159.482 381.204 159.114 381.164 158.749C381.092 158.386 380.886 158.063 380.588 157.844C380.29 157.625 379.921 157.526 379.553 157.567L363.933 160.005C363.57 160.077 363.248 160.282 363.029 160.58C362.81 160.878 362.711 161.248 362.751 161.616C362.826 161.976 363.033 162.295 363.331 162.511C363.629 162.727 363.996 162.824 364.362 162.783Z" fill="#EEEEEE" stroke="#333333" stroke-miterlimit="10" stroke-linecap="round"/>
<path d="M364.923 166.595L380.543 164.157C380.903 164.086 381.224 163.882 381.442 163.587C381.661 163.292 381.761 162.927 381.725 162.561C381.653 162.198 381.448 161.876 381.15 161.657C380.852 161.438 380.482 161.339 380.114 161.379L364.495 163.817C364.135 163.889 363.814 164.092 363.596 164.387C363.377 164.682 363.276 165.048 363.313 165.413C363.384 165.776 363.59 166.099 363.888 166.318C364.186 166.537 364.556 166.636 364.923 166.595Z" fill="#EEEEEE" stroke="#333333" stroke-miterlimit="10" stroke-linecap="round"/>
<path d="M361.303 181.417C361.448 182.442 361.894 183.401 362.585 184.172C363.275 184.944 364.178 185.493 365.181 185.75C366.184 186.008 367.24 185.962 368.217 185.619C369.194 185.276 370.046 184.651 370.667 183.822C371.289 182.994 371.65 182 371.706 180.967C371.762 179.933 371.51 178.906 370.982 178.016C370.454 177.125 369.674 176.411 368.74 175.965C367.806 175.518 366.761 175.358 365.736 175.506C364.365 175.704 363.129 176.437 362.298 177.545C361.467 178.653 361.109 180.046 361.303 181.417Z" fill="#333333" stroke="#333333" stroke-miterlimit="10" stroke-linecap="round"/>
<path d="M367.022 179.791L382.656 177.353C383.016 177.282 383.337 177.078 383.555 176.783C383.774 176.488 383.875 176.123 383.838 175.757C383.766 175.394 383.561 175.072 383.263 174.853C382.965 174.634 382.595 174.535 382.228 174.575L366.593 177.013C366.411 177.04 366.237 177.103 366.079 177.198C365.922 177.293 365.785 177.419 365.676 177.567C365.567 177.716 365.489 177.884 365.446 178.063C365.404 178.242 365.397 178.428 365.426 178.609C365.498 178.969 365.701 179.29 365.996 179.508C366.291 179.727 366.657 179.828 367.022 179.791Z" fill="#EEEEEE" stroke="#333333" stroke-miterlimit="10" stroke-linecap="round"/>
<path d="M367.613 183.648L383.247 181.21C383.431 181.183 383.607 181.12 383.765 181.024C383.924 180.928 384.062 180.801 384.17 180.651C384.279 180.501 384.357 180.33 384.399 180.15C384.441 179.969 384.446 179.782 384.415 179.599C384.388 179.417 384.325 179.243 384.23 179.085C384.135 178.928 384.009 178.791 383.861 178.682C383.712 178.573 383.544 178.495 383.365 178.452C383.186 178.409 383 178.403 382.819 178.432L367.184 180.855C366.824 180.93 366.505 181.137 366.289 181.435C366.073 181.733 365.976 182.1 366.017 182.466C366.089 182.826 366.292 183.147 366.587 183.365C366.882 183.584 367.248 183.685 367.613 183.648Z" fill="#EEEEEE" stroke="#333333" stroke-miterlimit="10" stroke-linecap="round"/>
<path d="M363.963 198.47C364.111 199.497 364.561 200.457 365.255 201.228C365.95 201.999 366.859 202.546 367.865 202.799C368.872 203.052 369.931 203 370.908 202.649C371.884 202.299 372.735 201.666 373.351 200.831C373.967 199.995 374.321 198.996 374.367 197.959C374.413 196.922 374.15 195.895 373.611 195.008C373.072 194.121 372.281 193.415 371.339 192.979C370.398 192.543 369.347 192.397 368.322 192.559C366.965 192.774 365.747 193.515 364.931 194.621C364.115 195.727 363.767 197.109 363.963 198.47Z" fill="#333333" stroke="#333333" stroke-miterlimit="10" stroke-linecap="round"/>
<path d="M369.667 196.844L385.301 194.406C385.661 194.331 385.981 194.124 386.197 193.827C386.412 193.529 386.509 193.161 386.469 192.795C386.442 192.613 386.379 192.439 386.284 192.281C386.189 192.124 386.063 191.987 385.915 191.878C385.766 191.769 385.598 191.691 385.419 191.649C385.24 191.606 385.054 191.599 384.873 191.628L369.238 194.051C368.878 194.126 368.559 194.333 368.343 194.631C368.127 194.929 368.03 195.297 368.071 195.662C368.143 196.022 368.346 196.343 368.641 196.561C368.936 196.78 369.302 196.881 369.667 196.844Z" fill="#EEEEEE" stroke="#333333" stroke-miterlimit="10" stroke-linecap="round"/>
<path d="M370.273 200.701L385.892 198.248C386.255 198.176 386.578 197.971 386.797 197.673C387.016 197.375 387.115 197.005 387.074 196.637C387 196.277 386.793 195.958 386.495 195.742C386.197 195.526 385.829 195.429 385.464 195.47L369.844 197.894C369.481 197.965 369.159 198.171 368.94 198.469C368.721 198.767 368.622 199.137 368.662 199.504C368.731 199.87 368.935 200.196 369.233 200.418C369.532 200.64 369.903 200.741 370.273 200.701Z" fill="#EEEEEE" stroke="#333333" stroke-miterlimit="10" stroke-linecap="round"/>
<path d="M366.608 215.523C366.767 216.542 367.224 217.492 367.921 218.252C368.618 219.012 369.524 219.55 370.526 219.796C371.528 220.043 372.58 219.988 373.55 219.638C374.521 219.289 375.366 218.66 375.98 217.831C376.594 217.002 376.95 216.01 377.001 214.979C377.053 213.949 376.799 212.927 376.271 212.04C375.743 211.154 374.965 210.444 374.035 209.998C373.104 209.553 372.063 209.393 371.041 209.538C370.355 209.635 369.695 209.868 369.1 210.223C368.505 210.577 367.986 211.047 367.573 211.603C367.161 212.16 366.863 212.793 366.698 213.466C366.532 214.139 366.501 214.838 366.608 215.523Z" fill="#333333" stroke="#333333" stroke-miterlimit="10" stroke-linecap="round"/>
<path d="M372.312 213.897L387.931 211.459C388.294 211.387 388.617 211.182 388.836 210.884C389.055 210.585 389.154 210.216 389.114 209.848C389.039 209.488 388.832 209.169 388.534 208.953C388.236 208.737 387.869 208.64 387.503 208.681L371.883 211.104C371.521 211.176 371.198 211.381 370.979 211.68C370.76 211.978 370.661 212.347 370.701 212.715C370.773 213.078 370.978 213.401 371.277 213.62C371.575 213.838 371.944 213.938 372.312 213.897Z" fill="#EEEEEE" stroke="#333333" stroke-miterlimit="10" stroke-linecap="round"/>
<path d="M372.933 217.739L388.567 215.316C388.93 215.244 389.253 215.039 389.472 214.741C389.691 214.442 389.79 214.073 389.749 213.705C389.677 213.342 389.472 213.019 389.174 212.801C388.876 212.582 388.506 212.483 388.139 212.523L372.504 214.961C372.144 215.036 371.825 215.243 371.609 215.541C371.393 215.839 371.296 216.206 371.337 216.572C371.412 216.929 371.616 217.246 371.911 217.462C372.206 217.677 372.57 217.776 372.933 217.739Z" fill="#EEEEEE" stroke="#333333" stroke-miterlimit="10" stroke-linecap="round"/>
<path d="M369.268 232.561C369.416 233.588 369.865 234.548 370.56 235.319C371.255 236.09 372.164 236.637 373.17 236.89C374.177 237.143 375.236 237.091 376.213 236.74C377.189 236.39 378.04 235.757 378.656 234.921C379.272 234.086 379.625 233.087 379.672 232.05C379.718 231.013 379.455 229.986 378.916 229.099C378.377 228.212 377.586 227.506 376.644 227.07C375.702 226.634 374.652 226.487 373.627 226.65C372.27 226.865 371.052 227.606 370.236 228.712C369.42 229.818 369.072 231.2 369.268 232.561Z" fill="#333333" stroke="#333333" stroke-miterlimit="10" stroke-linecap="round"/>
<path d="M374.972 230.935L390.606 228.512C390.969 228.44 391.292 228.235 391.511 227.937C391.73 227.638 391.829 227.269 391.788 226.901C391.713 226.541 391.507 226.222 391.209 226.006C390.911 225.79 390.543 225.693 390.178 225.734L374.543 228.157C374.183 228.232 373.864 228.439 373.648 228.737C373.432 229.035 373.335 229.402 373.376 229.768C373.401 229.951 373.463 230.127 373.557 230.285C373.652 230.444 373.777 230.581 373.926 230.69C374.075 230.799 374.244 230.877 374.424 230.919C374.604 230.961 374.79 230.967 374.972 230.935Z" fill="#EEEEEE" stroke="#333333" stroke-miterlimit="10" stroke-linecap="round"/>
<path d="M375.578 234.792L391.212 232.369C391.572 232.294 391.892 232.087 392.107 231.789C392.323 231.491 392.42 231.124 392.379 230.758C392.308 230.395 392.102 230.072 391.804 229.853C391.506 229.635 391.136 229.535 390.769 229.576L375.149 232.014C374.786 232.086 374.464 232.291 374.245 232.589C374.026 232.888 373.927 233.257 373.967 233.625C374.042 233.985 374.249 234.304 374.547 234.52C374.845 234.736 375.212 234.833 375.578 234.792Z" fill="#EEEEEE" stroke="#333333" stroke-miterlimit="10" stroke-linecap="round"/>
<path d="M371.928 249.614C372.076 250.641 372.525 251.601 373.22 252.372C373.915 253.143 374.824 253.689 375.83 253.943C376.837 254.196 377.896 254.144 378.872 253.793C379.849 253.443 380.7 252.81 381.316 251.974C381.932 251.139 382.285 250.139 382.332 249.103C382.378 248.066 382.115 247.039 381.576 246.152C381.037 245.265 380.246 244.559 379.304 244.123C378.362 243.686 377.312 243.54 376.287 243.703C374.93 243.918 373.712 244.658 372.896 245.764C372.08 246.871 371.732 248.253 371.928 249.614Z" fill="#333333" stroke="#333333" stroke-miterlimit="10" stroke-linecap="round"/>
<path d="M377.632 247.988L393.266 245.535C393.626 245.46 393.946 245.253 394.161 244.956C394.377 244.658 394.474 244.29 394.433 243.924C394.362 243.562 394.156 243.239 393.858 243.02C393.56 242.801 393.191 242.702 392.823 242.742L377.203 245.18C376.84 245.252 376.518 245.458 376.299 245.756C376.08 246.054 375.981 246.423 376.021 246.791C376.09 247.157 376.294 247.483 376.592 247.705C376.891 247.927 377.262 248.028 377.632 247.988Z" fill="#EEEEEE" stroke="#333333" stroke-miterlimit="10" stroke-linecap="round"/>
<path d="M378.223 251.845L393.843 249.407C394.203 249.335 394.523 249.132 394.742 248.837C394.96 248.542 395.061 248.176 395.025 247.811C394.953 247.448 394.748 247.125 394.449 246.906C394.151 246.687 393.782 246.588 393.414 246.629L377.78 249.067C377.42 249.142 377.1 249.348 376.884 249.646C376.669 249.944 376.572 250.312 376.612 250.678C376.687 251.038 376.894 251.357 377.192 251.573C377.49 251.789 377.857 251.886 378.223 251.845Z" fill="#EEEEEE" stroke="#333333" stroke-miterlimit="10" stroke-linecap="round"/>
<path d="M374.573 266.666C374.718 267.691 375.164 268.65 375.854 269.422C376.545 270.193 377.448 270.742 378.451 271C379.454 271.257 380.51 271.212 381.487 270.868C382.463 270.525 383.316 269.9 383.937 269.072C384.558 268.244 384.92 267.25 384.976 266.216C385.032 265.183 384.78 264.156 384.252 263.265C383.724 262.375 382.944 261.661 382.01 261.214C381.076 260.768 380.031 260.608 379.006 260.756C377.635 260.953 376.399 261.686 375.568 262.795C374.737 263.903 374.379 265.295 374.573 266.666Z" fill="#333333" stroke="#333333" stroke-miterlimit="10" stroke-linecap="round"/>
<path d="M380.292 265.041L395.956 262.618C396.319 262.546 396.641 262.34 396.86 262.042C397.079 261.744 397.178 261.375 397.138 261.007C397.066 260.644 396.861 260.321 396.563 260.102C396.264 259.883 395.895 259.784 395.527 259.825L379.893 262.263C379.533 262.338 379.213 262.544 378.997 262.842C378.782 263.14 378.685 263.508 378.725 263.874C378.8 264.225 379 264.538 379.288 264.753C379.577 264.968 379.933 265.07 380.292 265.041Z" fill="#EEEEEE" stroke="#333333" stroke-miterlimit="10" stroke-linecap="round"/>
<path d="M380.883 268.898L396.517 266.46C396.877 266.385 397.197 266.178 397.413 265.88C397.628 265.582 397.725 265.215 397.685 264.849C397.61 264.489 397.403 264.169 397.105 263.954C396.807 263.738 396.439 263.641 396.074 263.681L380.454 266.12C380.094 266.191 379.774 266.394 379.555 266.689C379.337 266.985 379.236 267.35 379.272 267.716C379.344 268.079 379.549 268.401 379.848 268.62C380.146 268.839 380.515 268.938 380.883 268.898Z" fill="#EEEEEE" stroke="#333333" stroke-miterlimit="10" stroke-linecap="round"/>
<path d="M377.233 283.719C377.38 284.747 377.83 285.707 378.525 286.478C379.22 287.248 380.129 287.795 381.135 288.048C382.141 288.301 383.201 288.249 384.177 287.899C385.154 287.548 386.005 286.915 386.621 286.08C387.237 285.245 387.59 284.245 387.637 283.208C387.683 282.172 387.42 281.144 386.881 280.258C386.341 279.371 385.551 278.664 384.609 278.228C383.667 277.792 382.617 277.646 381.592 277.808C380.235 278.024 379.016 278.764 378.201 279.87C377.385 280.976 377.037 282.359 377.233 283.719Z" fill="#333333" stroke="#333333" stroke-miterlimit="10" stroke-linecap="round"/>
<path d="M382.937 282.094L398.571 279.656C398.931 279.581 399.251 279.374 399.466 279.076C399.682 278.778 399.779 278.411 399.739 278.045C399.664 277.685 399.457 277.365 399.159 277.15C398.861 276.934 398.493 276.837 398.128 276.877L382.508 279.316C382.148 279.387 381.828 279.59 381.609 279.885C381.391 280.18 381.29 280.546 381.326 280.912C381.398 281.275 381.603 281.597 381.901 281.816C382.2 282.035 382.569 282.134 382.937 282.094Z" fill="#EEEEEE" stroke="#333333" stroke-miterlimit="10" stroke-linecap="round"/>
<path d="M383.543 285.951L399.162 283.512C399.525 283.441 399.848 283.235 400.067 282.937C400.286 282.639 400.385 282.269 400.344 281.902C400.27 281.542 400.063 281.222 399.765 281.006C399.467 280.791 399.099 280.694 398.734 280.734L383.1 283.158C382.739 283.233 382.42 283.439 382.204 283.737C381.988 284.035 381.891 284.403 381.932 284.769C382.004 285.131 382.209 285.454 382.507 285.673C382.806 285.892 383.175 285.991 383.543 285.951Z" fill="#EEEEEE" stroke="#333333" stroke-miterlimit="10" stroke-linecap="round"/>
<path d="M379.878 300.772C380.037 301.791 380.494 302.741 381.191 303.501C381.888 304.262 382.794 304.799 383.796 305.046C384.798 305.293 385.85 305.238 386.82 304.888C387.791 304.538 388.636 303.909 389.25 303.08C389.864 302.251 390.22 301.259 390.271 300.229C390.323 299.199 390.069 298.176 389.541 297.29C389.013 296.403 388.235 295.693 387.305 295.248C386.374 294.803 385.333 294.642 384.311 294.787C383.625 294.885 382.965 295.118 382.37 295.472C381.775 295.827 381.256 296.296 380.843 296.853C380.431 297.41 380.133 298.043 379.967 298.716C379.802 299.388 379.771 300.088 379.878 300.772Z" fill="#333333" stroke="#333333" stroke-miterlimit="10" stroke-linecap="round"/>
<path d="M385.611 299.147L401.231 296.709C401.594 296.637 401.917 296.431 402.135 296.133C402.354 295.835 402.453 295.466 402.413 295.098C402.338 294.738 402.131 294.418 401.834 294.202C401.536 293.987 401.168 293.89 400.802 293.93L385.168 296.354C384.808 296.429 384.489 296.635 384.273 296.933C384.057 297.231 383.96 297.599 384.001 297.965C384.073 298.327 384.278 298.65 384.576 298.869C384.874 299.088 385.244 299.187 385.611 299.147Z" fill="#EEEEEE" stroke="#333333" stroke-miterlimit="10" stroke-linecap="round"/>
<path d="M386.188 302.989L401.867 300.565C402.227 300.49 402.546 300.284 402.762 299.986C402.978 299.688 403.075 299.32 403.034 298.955C403.009 298.772 402.947 298.596 402.853 298.437C402.758 298.279 402.633 298.141 402.484 298.032C402.335 297.923 402.165 297.845 401.986 297.803C401.806 297.761 401.62 297.756 401.438 297.787L385.759 300.211C385.397 300.283 385.074 300.488 384.855 300.786C384.636 301.084 384.537 301.454 384.577 301.821C384.652 302.182 384.859 302.501 385.157 302.717C385.455 302.933 385.822 303.03 386.188 302.989Z" fill="#EEEEEE" stroke="#333333" stroke-miterlimit="10" stroke-linecap="round"/>
<path d="M382.538 317.81C382.686 318.838 383.135 319.798 383.83 320.569C384.525 321.339 385.434 321.886 386.44 322.139C387.447 322.392 388.506 322.34 389.483 321.99C390.459 321.639 391.31 321.006 391.926 320.171C392.542 319.336 392.895 318.336 392.942 317.299C392.988 316.263 392.725 315.235 392.186 314.349C391.647 313.462 390.856 312.755 389.914 312.319C388.972 311.883 387.922 311.737 386.897 311.899C385.54 312.115 384.322 312.855 383.506 313.961C382.69 315.067 382.342 316.45 382.538 317.81Z" fill="#333333" stroke="#333333" stroke-miterlimit="10" stroke-linecap="round"/>
<path d="M388.242 316.2L403.876 313.761C404.236 313.686 404.556 313.48 404.771 313.182C404.987 312.884 405.084 312.516 405.044 312.151C404.969 311.793 404.764 311.476 404.47 311.261C404.175 311.045 403.811 310.946 403.448 310.983L387.813 313.407C387.45 313.478 387.128 313.684 386.909 313.982C386.69 314.28 386.591 314.65 386.631 315.017C386.703 315.38 386.908 315.703 387.206 315.922C387.505 316.141 387.874 316.24 388.242 316.2Z" fill="#EEEEEE" stroke="#333333" stroke-miterlimit="10" stroke-linecap="round"/>
<path d="M388.848 320.042L404.467 317.618C404.83 317.546 405.153 317.341 405.372 317.043C405.591 316.745 405.69 316.375 405.649 316.007C405.578 315.645 405.372 315.322 405.074 315.103C404.776 314.884 404.406 314.785 404.039 314.825L388.419 317.264C388.056 317.335 387.734 317.541 387.515 317.839C387.296 318.137 387.197 318.507 387.237 318.874C387.312 319.234 387.519 319.554 387.817 319.77C388.114 319.985 388.482 320.082 388.848 320.042Z" fill="#EEEEEE" stroke="#333333" stroke-miterlimit="10" stroke-linecap="round"/>
<path d="M385.183 334.863C385.328 335.888 385.774 336.847 386.464 337.618C387.155 338.39 388.058 338.939 389.061 339.196C390.064 339.454 391.12 339.408 392.097 339.065C393.073 338.722 393.926 338.097 394.547 337.269C395.168 336.44 395.53 335.447 395.586 334.413C395.642 333.379 395.39 332.352 394.862 331.462C394.334 330.571 393.554 329.858 392.62 329.411C391.686 328.964 390.641 328.805 389.616 328.952C388.247 329.154 387.013 329.888 386.182 330.995C385.352 332.102 384.993 333.492 385.183 334.863Z" fill="#333333" stroke="#333333" stroke-miterlimit="10" stroke-linecap="round"/>
<path d="M390.902 333.238L406.521 330.814C406.884 330.742 407.207 330.537 407.426 330.239C407.645 329.941 407.744 329.571 407.703 329.203C407.632 328.841 407.426 328.518 407.128 328.299C406.83 328.08 406.46 327.981 406.093 328.021L390.473 330.46C390.11 330.531 389.788 330.737 389.569 331.035C389.35 331.333 389.251 331.703 389.291 332.07C389.366 332.43 389.573 332.75 389.871 332.966C390.168 333.181 390.536 333.278 390.902 333.238Z" fill="#EEEEEE" stroke="#333333" stroke-miterlimit="10" stroke-linecap="round"/>
<path d="M391.523 337.154L407.157 334.73C407.517 334.655 407.836 334.449 408.052 334.151C408.268 333.853 408.365 333.485 408.324 333.119C408.253 332.759 408.049 332.439 407.754 332.22C407.459 332.002 407.094 331.901 406.728 331.937L391.094 334.375C390.734 334.45 390.415 334.657 390.199 334.955C389.983 335.253 389.886 335.621 389.927 335.986C389.954 336.168 390.016 336.343 390.112 336.5C390.207 336.658 390.332 336.795 390.481 336.903C390.629 337.012 390.798 337.09 390.976 337.133C391.155 337.176 391.341 337.183 391.523 337.154Z" fill="#EEEEEE" stroke="#333333" stroke-miterlimit="10" stroke-linecap="round"/>
<path d="M387.843 351.931C387.991 352.958 388.44 353.918 389.135 354.689C389.83 355.46 390.739 356.007 391.745 356.26C392.752 356.513 393.811 356.461 394.787 356.11C395.764 355.76 396.615 355.127 397.231 354.292C397.847 353.456 398.2 352.457 398.247 351.42C398.293 350.383 398.03 349.356 397.491 348.469C396.952 347.582 396.161 346.876 395.219 346.44C394.277 346.004 393.227 345.858 392.202 346.02C390.845 346.235 389.626 346.976 388.811 348.082C387.995 349.188 387.647 350.57 387.843 351.931Z" fill="#333333" stroke="#333333" stroke-miterlimit="10" stroke-linecap="round"/>
<path d="M393.547 350.291L409.255 347.867C409.438 347.84 409.615 347.777 409.773 347.681C409.932 347.585 410.069 347.458 410.178 347.308C410.287 347.158 410.365 346.987 410.407 346.807C410.449 346.626 410.454 346.439 410.422 346.256C410.351 345.896 410.148 345.576 409.853 345.357C409.558 345.139 409.192 345.038 408.826 345.074L393.118 347.498C392.935 347.524 392.759 347.588 392.6 347.684C392.442 347.78 392.304 347.907 392.195 348.057C392.086 348.207 392.008 348.377 391.967 348.558C391.925 348.738 391.919 348.926 391.951 349.108C391.976 349.292 392.038 349.468 392.132 349.627C392.226 349.786 392.351 349.925 392.5 350.035C392.649 350.145 392.818 350.225 392.998 350.268C393.177 350.312 393.364 350.32 393.547 350.291Z" fill="#EEEEEE" stroke="#333333" stroke-miterlimit="10" stroke-linecap="round"/>
<path d="M394.153 354.147L409.772 351.709C409.956 351.684 410.132 351.622 410.291 351.528C410.45 351.434 410.589 351.309 410.699 351.16C410.809 351.011 410.889 350.842 410.932 350.662C410.976 350.483 410.984 350.296 410.954 350.113C410.883 349.75 410.677 349.428 410.379 349.209C410.081 348.99 409.711 348.891 409.344 348.931L393.724 351.369C393.364 351.441 393.044 351.644 392.825 351.939C392.607 352.234 392.506 352.6 392.542 352.965C392.614 353.328 392.819 353.651 393.117 353.87C393.416 354.089 393.785 354.188 394.153 354.147Z" fill="#EEEEEE" stroke="#333333" stroke-miterlimit="10" stroke-linecap="round"/>
<path d="M390.488 368.969C390.633 369.994 391.079 370.953 391.769 371.724C392.46 372.495 393.363 373.045 394.366 373.302C395.368 373.56 396.425 373.514 397.402 373.171C398.378 372.828 399.231 372.202 399.852 371.374C400.473 370.546 400.835 369.552 400.891 368.519C400.947 367.485 400.695 366.458 400.167 365.567C399.639 364.677 398.859 363.963 397.925 363.517C396.991 363.07 395.946 362.91 394.921 363.058C393.552 363.259 392.318 363.993 391.487 365.101C390.657 366.208 390.298 367.598 390.488 368.969Z" fill="#333333" stroke="#333333" stroke-miterlimit="10" stroke-linecap="round"/>
<path d="M396.207 367.343L411.826 364.905C412.186 364.834 412.507 364.631 412.725 364.336C412.944 364.04 413.045 363.675 413.008 363.309C412.937 362.946 412.731 362.624 412.433 362.405C412.135 362.186 411.765 362.087 411.398 362.127L395.778 364.565C395.418 364.637 395.098 364.84 394.879 365.135C394.66 365.43 394.56 365.796 394.596 366.161C394.668 366.524 394.873 366.847 395.171 367.066C395.469 367.285 395.839 367.384 396.207 367.343Z" fill="#EEEEEE" stroke="#333333" stroke-miterlimit="10" stroke-linecap="round"/>
<path d="M396.813 371.141L412.432 368.703C412.795 368.631 413.118 368.426 413.337 368.128C413.556 367.829 413.655 367.46 413.614 367.092C413.539 366.732 413.333 366.413 413.035 366.197C412.737 365.981 412.369 365.884 412.004 365.925L396.369 368.348C396.009 368.423 395.69 368.63 395.474 368.928C395.258 369.226 395.161 369.593 395.202 369.959C395.274 370.322 395.479 370.645 395.777 370.863C396.075 371.082 396.445 371.181 396.813 371.141Z" fill="#EEEEEE" stroke="#333333" stroke-miterlimit="10" stroke-linecap="round"/>
<path d="M393.148 386.022C393.296 387.049 393.745 388.009 394.44 388.78C395.135 389.551 396.044 390.098 397.05 390.351C398.057 390.604 399.116 390.552 400.092 390.201C401.069 389.851 401.92 389.218 402.536 388.382C403.152 387.547 403.505 386.548 403.552 385.511C403.598 384.474 403.335 383.447 402.796 382.56C402.257 381.673 401.466 380.967 400.524 380.531C399.582 380.095 398.532 379.948 397.507 380.111C396.15 380.326 394.931 381.066 394.116 382.173C393.3 383.279 392.952 384.661 393.148 386.022Z" fill="#333333" stroke="#333333" stroke-miterlimit="10" stroke-linecap="round"/>
<path d="M398.911 384.441L414.53 382.002C414.893 381.931 415.216 381.725 415.435 381.427C415.654 381.129 415.753 380.759 415.713 380.392C415.638 380.031 415.431 379.712 415.133 379.496C414.835 379.28 414.468 379.183 414.102 379.224L398.468 381.648C398.108 381.723 397.788 381.929 397.572 382.227C397.356 382.525 397.259 382.893 397.3 383.258C397.372 383.621 397.577 383.944 397.876 384.163C398.174 384.382 398.543 384.481 398.911 384.441Z" fill="#EEEEEE" stroke="#333333" stroke-miterlimit="10" stroke-linecap="round"/>
<path d="M399.458 388.253L415.166 385.815C415.526 385.74 415.845 385.533 416.061 385.235C416.277 384.938 416.374 384.57 416.333 384.204C416.258 383.844 416.052 383.525 415.754 383.309C415.456 383.093 415.088 382.996 414.723 383.037L399.103 385.46C398.74 385.532 398.418 385.737 398.199 386.036C397.98 386.334 397.881 386.703 397.921 387.071C397.992 387.42 398.186 387.732 398.468 387.949C398.751 388.167 399.102 388.274 399.458 388.253Z" fill="#EEEEEE" stroke="#333333" stroke-miterlimit="10" stroke-linecap="round"/>
<path d="M395.808 403.075C395.967 404.094 396.423 405.043 397.12 405.804C397.818 406.564 398.724 407.102 399.726 407.348C400.727 407.595 401.78 407.54 402.75 407.19C403.721 406.841 404.566 406.212 405.18 405.383C405.794 404.554 406.149 403.562 406.201 402.531C406.253 401.501 405.999 400.479 405.471 399.592C404.943 398.706 404.165 397.995 403.234 397.55C402.304 397.105 401.262 396.945 400.241 397.09C399.555 397.187 398.895 397.42 398.3 397.775C397.704 398.129 397.185 398.598 396.773 399.155C396.361 399.712 396.063 400.345 395.897 401.018C395.731 401.691 395.701 402.39 395.808 403.075Z" fill="#333333" stroke="#333333" stroke-miterlimit="10" stroke-linecap="round"/>
<path d="M401.512 401.449L417.146 399.011C417.506 398.936 417.826 398.729 418.041 398.431C418.257 398.134 418.354 397.766 418.313 397.4C418.232 397.034 418.014 396.713 417.703 396.501C417.393 396.29 417.014 396.205 416.644 396.262L401.024 398.686C400.661 398.758 400.338 398.963 400.12 399.261C399.901 399.559 399.802 399.929 399.842 400.297C399.921 400.666 400.137 400.99 400.448 401.205C400.758 401.419 401.139 401.506 401.512 401.449Z" fill="#EEEEEE" stroke="#333333" stroke-miterlimit="10" stroke-linecap="round"/>
<path d="M402.118 405.291L417.737 402.868C418.1 402.796 418.423 402.591 418.642 402.292C418.861 401.994 418.96 401.625 418.919 401.257C418.847 400.894 418.642 400.571 418.344 400.352C418.046 400.134 417.676 400.034 417.309 400.075L401.674 402.513C401.314 402.588 400.995 402.795 400.779 403.093C400.563 403.39 400.466 403.758 400.507 404.124C400.582 404.484 400.788 404.803 401.086 405.019C401.384 405.235 401.752 405.332 402.118 405.291Z" fill="#EEEEEE" stroke="#333333" stroke-miterlimit="10" stroke-linecap="round"/>
<path d="M398.453 420.113C398.6 421.14 399.05 422.1 399.745 422.871C400.44 423.642 401.349 424.189 402.355 424.442C403.362 424.695 404.421 424.643 405.397 424.292C406.374 423.942 407.225 423.309 407.841 422.473C408.457 421.638 408.81 420.639 408.857 419.602C408.903 418.565 408.64 417.538 408.101 416.651C407.562 415.764 406.771 415.058 405.829 414.622C404.887 414.186 403.837 414.039 402.812 414.202C401.455 414.417 400.236 415.158 399.421 416.264C398.605 417.37 398.257 418.752 398.453 420.113Z" fill="#333333" stroke="#333333" stroke-miterlimit="10" stroke-linecap="round"/>
<path d="M404.172 418.428L419.791 416.005C420.154 415.933 420.477 415.728 420.696 415.429C420.915 415.131 421.014 414.762 420.973 414.394C420.946 414.21 420.883 414.034 420.787 413.876C420.691 413.717 420.564 413.579 420.414 413.471C420.264 413.362 420.094 413.284 419.913 413.242C419.732 413.2 419.545 413.195 419.363 413.227L403.728 415.65C403.368 415.725 403.049 415.932 402.833 416.229C402.617 416.527 402.52 416.895 402.561 417.261C402.588 417.444 402.651 417.62 402.747 417.779C402.843 417.937 402.97 418.075 403.12 418.184C403.27 418.293 403.441 418.37 403.621 418.412C403.802 418.454 403.989 418.46 404.172 418.428Z" fill="#EEEEEE" stroke="#333333" stroke-miterlimit="10" stroke-linecap="round"/>
<path d="M404.822 422.344L420.397 419.906C420.757 419.831 421.076 419.624 421.292 419.326C421.508 419.029 421.605 418.661 421.564 418.295C421.493 417.932 421.287 417.61 420.989 417.391C420.691 417.172 420.321 417.073 419.954 417.113L404.334 419.551C403.971 419.623 403.649 419.828 403.43 420.127C403.211 420.425 403.112 420.794 403.152 421.162C403.224 421.536 403.438 421.868 403.749 422.089C404.061 422.309 404.445 422.401 404.822 422.344Z" fill="#EEEEEE" stroke="#333333" stroke-miterlimit="10" stroke-linecap="round"/>
<path d="M401.113 437.165C401.26 438.193 401.71 439.153 402.405 439.924C403.1 440.695 404.009 441.241 405.015 441.494C406.022 441.748 407.081 441.696 408.057 441.345C409.034 440.995 409.885 440.361 410.501 439.526C411.117 438.691 411.47 437.691 411.517 436.655C411.563 435.618 411.3 434.591 410.761 433.704C410.221 432.817 409.431 432.111 408.489 431.675C407.547 431.238 406.497 431.092 405.472 431.255C404.115 431.47 402.896 432.21 402.081 433.316C401.265 434.422 400.917 435.805 401.113 437.165Z" fill="#333333" stroke="#333333" stroke-miterlimit="10" stroke-linecap="round"/>
<path d="M406.817 435.54L422.451 433.117C422.811 433.042 423.131 432.835 423.346 432.537C423.562 432.239 423.659 431.871 423.619 431.506C423.547 431.143 423.341 430.82 423.043 430.601C422.745 430.382 422.376 430.283 422.008 430.324L406.388 432.762C406.025 432.834 405.703 433.039 405.484 433.337C405.265 433.635 405.166 434.005 405.206 434.373C405.281 434.733 405.488 435.052 405.786 435.268C406.084 435.484 406.451 435.581 406.817 435.54Z" fill="#EEEEEE" stroke="#333333" stroke-miterlimit="10" stroke-linecap="round"/>
<path d="M407.423 439.397L423.042 436.959C423.402 436.887 423.723 436.684 423.941 436.389C424.16 436.094 424.261 435.728 424.224 435.363C424.153 435 423.947 434.677 423.649 434.458C423.351 434.239 422.981 434.14 422.614 434.181L406.979 436.619C406.619 436.694 406.3 436.9 406.084 437.198C405.868 437.496 405.771 437.864 405.812 438.229C405.887 438.59 406.094 438.909 406.391 439.125C406.689 439.341 407.057 439.438 407.423 439.397Z" fill="#EEEEEE" stroke="#333333" stroke-miterlimit="10" stroke-linecap="round"/>
<path d="M403.758 454.218C403.903 455.243 404.349 456.202 405.039 456.974C405.73 457.745 406.633 458.294 407.636 458.552C408.639 458.809 409.695 458.764 410.672 458.42C411.648 458.077 412.501 457.452 413.122 456.624C413.743 455.796 414.105 454.802 414.161 453.768C414.217 452.735 413.965 451.707 413.437 450.817C412.909 449.927 412.129 449.213 411.195 448.766C410.261 448.319 409.216 448.16 408.191 448.308C406.82 448.505 405.584 449.238 404.753 450.346C403.921 451.455 403.564 452.847 403.758 454.218Z" fill="#333333" stroke="#333333" stroke-miterlimit="10" stroke-linecap="round"/>
<path d="M409.477 452.593L425.096 450.169C425.459 450.098 425.782 449.892 426.001 449.594C426.22 449.296 426.319 448.927 426.278 448.559C426.207 448.196 426.001 447.873 425.703 447.654C425.405 447.435 425.035 447.336 424.668 447.377L409.033 449.815C408.673 449.89 408.354 450.096 408.138 450.394C407.922 450.692 407.825 451.06 407.866 451.426C407.941 451.786 408.148 452.105 408.446 452.321C408.743 452.537 409.111 452.634 409.477 452.593Z" fill="#EEEEEE" stroke="#333333" stroke-miterlimit="10" stroke-linecap="round"/>
<path d="M410.068 456.45L425.702 454.012C426.062 453.937 426.381 453.73 426.597 453.432C426.813 453.134 426.91 452.766 426.869 452.401C426.842 452.219 426.78 452.044 426.684 451.887C426.589 451.729 426.464 451.592 426.316 451.484C426.167 451.375 425.998 451.297 425.82 451.254C425.641 451.211 425.455 451.204 425.274 451.233L409.639 453.672C409.456 453.697 409.281 453.758 409.122 453.853C408.964 453.947 408.826 454.073 408.717 454.222C408.608 454.371 408.53 454.54 408.488 454.72C408.446 454.9 408.44 455.086 408.472 455.268C408.543 455.628 408.747 455.948 409.042 456.167C409.337 456.385 409.702 456.486 410.068 456.45Z" fill="#EEEEEE" stroke="#333333" stroke-miterlimit="10" stroke-linecap="round"/>
<g opacity="0.3">
<path d="M180.327 165.014L184.213 164.423" stroke="#333333" stroke-miterlimit="10" stroke-linecap="round"/>
<path d="M188.1 163.817L191.986 163.211" stroke="#333333" stroke-miterlimit="10" stroke-linecap="round"/>
<path d="M142.35 176.407L146.221 175.802" stroke="#333333" stroke-miterlimit="10" stroke-linecap="round"/>
<path d="M150.108 175.196L153.994 174.59" stroke="#333333" stroke-miterlimit="10" stroke-linecap="round"/>
<path d="M157.881 173.999L161.752 173.393" stroke="#333333" stroke-miterlimit="10" stroke-linecap="round"/>
<path d="M165.639 172.787L169.525 172.181" stroke="#333333" stroke-miterlimit="10" stroke-linecap="round"/>
<path d="M173.397 171.575L177.283 170.969" stroke="#333333" stroke-miterlimit="10" stroke-linecap="round"/>
<path d="M181.169 170.364L185.041 169.758" stroke="#333333" stroke-miterlimit="10" stroke-linecap="round"/>
<path d="M188.927 169.152L192.814 168.561" stroke="#333333" stroke-miterlimit="10" stroke-linecap="round"/>
<path d="M143.177 181.757L147.064 181.151" stroke="#333333" stroke-miterlimit="10" stroke-linecap="round"/>
<path d="M150.935 180.545L154.822 179.939" stroke="#333333" stroke-miterlimit="10" stroke-linecap="round"/>
<path d="M158.708 179.333L162.594 178.742" stroke="#333333" stroke-miterlimit="10" stroke-linecap="round"/>
<path d="M166.466 178.136L170.352 177.531" stroke="#333333" stroke-miterlimit="10" stroke-linecap="round"/>
<path d="M174.239 176.925L178.11 176.319" stroke="#333333" stroke-miterlimit="10" stroke-linecap="round"/>
<path d="M181.997 175.713L185.883 175.107" stroke="#333333" stroke-miterlimit="10" stroke-linecap="round"/>
<path d="M189.755 174.501L193.641 173.895" stroke="#333333" stroke-miterlimit="10" stroke-linecap="round"/>
<path d="M144.005 187.106L147.891 186.5" stroke="#333333" stroke-miterlimit="10" stroke-linecap="round"/>
<path d="M151.777 185.894L155.649 185.289" stroke="#333333" stroke-miterlimit="10" stroke-linecap="round"/>
<path d="M159.535 184.683L163.422 184.077" stroke="#333333" stroke-miterlimit="10" stroke-linecap="round"/>
<path d="M167.308 183.486L171.18 182.88" stroke="#333333" stroke-miterlimit="10" stroke-linecap="round"/>
<path d="M175.066 182.274L178.953 181.668" stroke="#333333" stroke-miterlimit="10" stroke-linecap="round"/>
<path d="M182.824 181.062L186.711 180.456" stroke="#333333" stroke-miterlimit="10" stroke-linecap="round"/>
<path d="M190.597 179.851L194.469 179.245" stroke="#333333" stroke-miterlimit="10" stroke-linecap="round"/>
<path d="M144.847 192.456L148.719 191.85" stroke="#333333" stroke-miterlimit="10" stroke-linecap="round"/>
<path d="M152.605 191.244L156.491 190.638" stroke="#333333" stroke-miterlimit="10" stroke-linecap="round"/>
<path d="M160.363 190.032L164.249 189.426" stroke="#333333" stroke-miterlimit="10" stroke-linecap="round"/>
<path d="M168.136 188.82L172.022 188.229" stroke="#333333" stroke-miterlimit="10" stroke-linecap="round"/>
<path d="M175.894 187.623L179.78 187.017" stroke="#333333" stroke-miterlimit="10" stroke-linecap="round"/>
<path d="M183.667 186.412L187.538 185.806" stroke="#333333" stroke-miterlimit="10" stroke-linecap="round"/>
<path d="M191.424 185.2L195.311 184.594" stroke="#333333" stroke-miterlimit="10" stroke-linecap="round"/>
<path d="M140.414 164.039L144.3 163.433" stroke="#333333" stroke-miterlimit="10" stroke-linecap="round"/>
<path d="M148.186 162.827L152.073 162.236" stroke="#333333" stroke-miterlimit="10" stroke-linecap="round"/>
<path d="M155.945 161.63L159.831 161.024" stroke="#333333" stroke-miterlimit="10" stroke-linecap="round"/>
<path d="M163.717 160.419L167.589 159.813" stroke="#333333" stroke-miterlimit="10" stroke-linecap="round"/>
<path d="M171.476 159.207L175.362 158.601" stroke="#333333" stroke-miterlimit="10" stroke-linecap="round"/>
<path d="M179.248 157.995L183.12 157.404" stroke="#333333" stroke-miterlimit="10" stroke-linecap="round"/>
<path d="M187.006 156.798L190.893 156.192" stroke="#333333" stroke-miterlimit="10" stroke-linecap="round"/>
<path d="M191.691 159.148L140.561 167.098" stroke="#333333" stroke-miterlimit="10" stroke-linecap="round"/>
<path d="M154.748 154.966L174.475 151.892" stroke="#333333" stroke-miterlimit="10" stroke-linecap="round"/>
<path d="M130.247 210.114L347.812 176.26" stroke="#333333" stroke-miterlimit="10" stroke-linecap="round"/>
<path d="M132.981 227.64L350.531 193.785" stroke="#333333" stroke-miterlimit="10" stroke-linecap="round"/>
<path d="M135.7 245.151L353.264 211.296" stroke="#333333" stroke-miterlimit="10" stroke-linecap="round"/>
<path d="M138.434 262.677L355.983 228.822" stroke="#333333" stroke-miterlimit="10" stroke-linecap="round"/>
<path d="M141.153 280.202L358.717 246.348" stroke="#333333" stroke-miterlimit="10" stroke-linecap="round"/>
<path d="M143.886 297.728L361.436 263.859" stroke="#333333" stroke-miterlimit="10" stroke-linecap="round"/>
<path d="M146.605 315.239L364.17 281.385" stroke="#333333" stroke-miterlimit="10" stroke-linecap="round"/>
<path d="M149.339 332.765L366.889 298.91" stroke="#333333" stroke-miterlimit="10" stroke-linecap="round"/>
<path d="M152.058 350.291L369.623 316.436" stroke="#333333" stroke-miterlimit="10" stroke-linecap="round"/>
<path d="M154.792 367.816L372.342 333.947" stroke="#333333" stroke-miterlimit="10" stroke-linecap="round"/>
<path d="M157.511 385.327L375.075 351.473" stroke="#333333" stroke-miterlimit="10" stroke-linecap="round"/>
<path d="M160.245 402.853L377.809 368.998" stroke="#333333" stroke-miterlimit="10" stroke-linecap="round"/>
<path d="M162.964 420.379L380.528 386.524" stroke="#333333" stroke-miterlimit="10" stroke-linecap="round"/>
<path d="M169.451 461.991L387.001 428.137" stroke="#333333" stroke-miterlimit="10" stroke-linecap="round"/>
<path d="M171.608 475.867L389.158 441.998" stroke="#333333" stroke-miterlimit="10" stroke-linecap="round"/>
<path d="M173.766 489.728L391.316 455.873" stroke="#333333" stroke-miterlimit="10" stroke-linecap="round"/>
</g>
<path d="M161.279 226.975C161.279 226.975 142.719 247.057 153.447 243.895C164.176 240.733 178.849 219.749 175.731 228.467C172.613 237.186 172.776 243.126 177.815 237.112C182.854 231.098 185.676 229.901 184.657 233.048C183.637 236.196 187.804 234.053 187.804 234.053C187.804 234.053 198.148 227.965 197.07 231.098C195.991 234.231 195.341 234.364 198.266 233.905L207.753 232.428C207.753 232.428 207.133 233.285 215.896 231.911C224.659 230.536 228.072 228.527 232.461 227.847" stroke="#333333" stroke-miterlimit="10" stroke-linecap="round"/>
<path d="M152.856 254.401C152.856 254.401 167.16 245.446 168.963 247.412C170.766 249.377 168.298 252.746 174.756 251.003C181.213 249.259 187.095 243.851 187.553 246.762C188.011 249.673 192.163 247.545 192.163 247.545L195.813 246.969C195.813 246.969 202.493 246.688 204.576 245.609C206.66 244.53 208.817 234.482 207.221 248.195C205.625 261.908 200.025 250.057 213.339 244.25C226.653 238.442 229.121 244.781 229.121 244.781C230.595 244.449 232.027 243.953 233.392 243.304C236.185 242.107 238.652 238.738 241.297 241.324C243.943 243.91 248.686 235.694 248.686 235.694C250.532 236.038 252.353 236.502 254.139 237.083C255.85 237.68 257.668 237.907 259.473 237.748C261.704 237.833 263.938 237.734 266.153 237.452C269.108 236.994 271.546 233.625 273.955 234.748C276.364 235.871 280.014 225.571 278.181 237.821C276.349 250.072 264.498 255.657 269.315 248.165C273.567 241.622 279.029 235.949 285.407 231.452C290.801 227.625 292.367 228.128 293.55 230.935C294.732 233.743 296.195 233.507 299.002 232.324C301.81 231.142 299.401 230.019 301.81 231.142C302.612 231.598 303.496 231.891 304.411 232.006C305.326 232.12 306.255 232.052 307.145 231.807C309.346 231.467 299.076 237.555 309.346 231.467C319.616 225.379 323.281 200.879 317.902 214.429C312.523 227.98 314.563 231.408 321.759 229.531" stroke="#333333" stroke-miterlimit="10" stroke-linecap="round"/>
<path d="M154.408 278.887C154.408 278.887 171.963 261.953 170.884 259.869C169.806 257.785 164.205 260.165 160.112 267.524C156.018 274.883 158.9 278.932 169.909 272.74C180.918 266.548 164.9 274.218 176.204 274.75C187.509 275.282 190.848 267.982 191.188 270.169C191.528 272.356 187.76 272.193 196.641 271.646C205.522 271.1 201.177 267.213 210.28 268.026C219.383 268.839 223.432 265.972 223.432 265.972L229.269 265.071C229.269 265.071 217.447 266.149 232.801 263.77C248.154 261.391 254.892 242.388 247.504 252.51C240.115 262.632 243.588 265.809 251.169 261.657L258.749 257.49C258.749 257.49 268.325 247.028 263.803 261.184C259.281 275.341 253.932 264.967 270.763 257.859C287.594 250.751 287.166 257.549 292.781 255.185C298.396 252.82 297.48 246.969 301.204 251.623C304.928 256.278 304.692 254.83 310.529 253.914C316.366 252.998 314.799 252.436 319.912 251.712L330.936 249.968" stroke="#333333" stroke-miterlimit="10" stroke-linecap="round"/>
<path d="M157.363 331.524C157.363 331.524 169.599 323.633 171.549 312.106C173.5 300.58 163.85 315.549 164.9 331.834C165.949 348.118 160.215 325.834 177.283 320.189C194.351 314.545 175.805 324.918 177.697 327.578C179.588 330.238 193.582 319.126 193.42 322.879C193.257 326.632 196.375 327.652 204.975 320.337C213.576 313.023 199.582 314.426 198.917 319.791C198.252 325.155 202.404 322.982 213.014 319.081C223.624 315.18 213.236 320.559 219.812 319.525C226.387 318.49 240.854 305.782 238.002 311.456C235.15 317.131 237.899 320.455 241.091 316.968C244.283 313.481 251.08 304.186 251.642 307.836C251.98 309.991 251.512 312.196 250.327 314.027" stroke="#333333" stroke-miterlimit="10" stroke-linecap="round"/>
<path opacity="0.3" d="M88.7822 192.47C88.4969 192.168 88.1907 191.887 87.866 191.628C86.9284 190.898 85.9003 190.292 84.8071 189.825L84.1569 189.589H83.9944C78.1722 187.786 58.2673 186.929 51.588 186.633C49.9219 186.575 48.2852 187.083 46.9438 188.072C45.6024 189.062 44.6352 190.477 44.1994 192.086V192.249C42.7808 197.672 22.5361 331.464 22.5361 331.464C22.5361 331.464 22.3883 334.42 22.1814 339.045C22.0928 341.07 22.0041 343.478 21.8859 345.917C21.8859 346.552 21.8859 347.187 21.8859 347.838C21.8859 349.138 21.7824 350.468 21.7233 351.813C21.5312 356.556 21.3539 361.551 21.2209 366.117C21.1175 369.368 21.0436 372.412 20.9993 374.983C20.9993 377.037 20.9993 378.781 20.9993 380.111C20.9822 383.207 21.1549 386.301 21.5165 389.376C22.0928 393.189 23.4227 394.947 26.7033 395.524C27.516 395.671 28.6982 395.849 30.1316 396.026L31.0182 396.129L35.0819 396.573L36.205 396.676L39.6776 396.957L42.0715 397.105L44.4802 397.223C46.0614 397.297 47.6277 397.326 49.1202 397.326C51.2936 397.358 53.4664 397.235 55.6222 396.957H55.8143L56.361 396.853L56.9669 396.706H57.0851L57.691 396.514L58.7106 396.129L59.6416 395.745C60.8956 395.244 62.09 394.604 63.2029 393.839C63.5626 393.582 63.9079 393.306 64.2373 393.011C64.5525 392.736 64.8481 392.44 65.1239 392.125L65.5081 391.667C66.0466 390.99 66.5402 390.28 66.9858 389.539C67.0594 389.423 67.1189 389.299 67.1632 389.169L67.2518 388.948L67.3996 388.563C67.4324 388.448 67.4718 388.334 67.5178 388.224C67.5178 388.061 67.6065 387.928 67.6656 387.751L67.7986 387.337C67.7986 387.145 67.902 386.968 67.9611 386.761C68.0202 386.554 68.0646 386.436 68.1089 386.273C68.1532 386.11 68.2271 385.83 68.301 385.593C68.3749 385.357 68.4044 385.194 68.4636 385.002C68.5227 384.81 68.5818 384.529 68.6557 384.263C68.7295 383.997 68.7739 383.82 68.833 383.598C68.8921 383.377 68.966 383.066 69.0399 382.771L69.2172 382.076L69.4389 381.175C69.4389 380.924 69.5718 380.643 69.6457 380.377L69.8674 379.431C69.9413 379.165 70.0004 378.87 70.0743 378.589C70.1482 378.308 70.2368 377.924 70.3107 377.584L70.5324 376.683C70.5324 376.343 70.6949 376.003 70.7688 375.648C70.8427 375.294 70.9166 374.998 71.0052 374.673C71.0939 374.348 71.1678 373.964 71.2417 373.594C71.2485 373.491 71.2485 373.387 71.2417 373.284C71.2417 373.077 71.3451 372.87 71.3894 372.663C71.4338 372.456 71.5668 371.865 71.6702 371.451C71.7736 371.038 71.8032 370.831 71.8771 370.506C71.951 370.181 72.0544 369.693 72.1578 369.279L72.3795 368.304L72.6455 367.077C72.6455 366.723 72.808 366.353 72.8819 365.999L73.1479 364.831C73.1479 364.462 73.3105 364.078 73.3844 363.708L73.6503 362.541C73.6503 362.364 73.6503 362.186 73.7538 362.009C73.8572 361.832 73.8572 361.595 73.9016 361.388C73.9459 361.181 74.0641 360.62 74.138 360.236C74.2119 359.851 74.3005 359.482 74.3892 359.098C74.4779 358.714 74.5517 358.3 74.6404 357.916C74.7291 357.531 74.803 357.147 74.8916 356.763C74.9803 356.379 75.0394 356.024 75.1281 355.655C75.2167 355.285 75.2906 354.842 75.3793 354.428L75.6009 353.364C75.6896 352.98 75.7635 352.611 75.8374 352.241C75.9113 351.872 75.9999 351.458 76.0886 351.074L76.3102 349.965C76.3102 349.626 76.458 349.286 76.5171 348.946C76.5762 348.606 76.6206 348.443 76.6797 348.192L76.7683 347.764C76.7683 347.439 76.9013 347.113 76.9604 346.788C77.0195 346.463 77.123 346.049 77.1969 345.68C77.2708 345.311 77.3151 345.045 77.389 344.734L77.6106 343.596C77.6106 343.345 77.7141 343.079 77.7584 342.828L77.9357 341.971C77.9357 341.868 77.9357 341.764 77.9357 341.646C77.9357 341.528 78.0392 341.158 78.0835 340.907L78.3052 339.828L78.4381 339.089C78.512 338.75 78.5711 338.41 78.6303 338.099L78.7632 337.449L78.9406 336.459C78.9406 336.282 78.9406 336.119 79.044 335.957L79.2213 334.996L79.31 334.523C79.31 334.228 79.4134 333.947 79.4578 333.681C79.4578 333.326 79.576 332.972 79.6351 332.661C79.8863 331.184 80.2262 327.918 80.64 323.352C80.8025 321.638 80.965 319.746 81.1424 317.677C81.7778 310.141 82.5166 300.447 83.2998 289.808C83.2998 288.847 83.4328 287.872 83.5067 286.852C86.4622 246.629 89.7427 195.012 89.7427 195.012C89.7617 194.546 89.6864 194.08 89.5213 193.643C89.3563 193.207 89.1049 192.808 88.7822 192.47Z" fill="#333333"/>
<path d="M15.6352 329.987C15.6352 329.987 13.8176 368.053 14.0245 378.603C14.2314 389.154 14.4826 393.1 19.7137 394.031C24.9449 394.962 45.1305 396.986 50.7458 394.947C56.3611 392.908 58.1344 391.105 60.0259 387.987C61.9174 384.869 70.8132 342.813 72.8229 331.006C74.8326 319.199 82.9453 193.401 82.9453 193.401C82.9453 193.401 83.2556 190.727 77.8619 188.347C73.4288 186.353 51.6768 185.392 44.6428 185.156C42.9663 185.08 41.3139 185.577 39.9575 186.565C38.6012 187.554 37.6217 188.974 37.1804 190.594C37.1804 190.594 37.1804 190.712 37.1804 190.756C35.8356 196.179 15.6352 329.987 15.6352 329.987Z" fill="#40A578"/>
<mask id="mask0_6_483" style="mask-type:luminance" maskUnits="userSpaceOnUse" x="14" y="185" width="69" height="211">
<path d="M15.6352 329.987C15.6352 329.987 13.8176 368.053 14.0245 378.603C14.2314 389.154 14.4826 393.1 19.7137 394.031C24.9449 394.962 45.1305 396.986 50.7458 394.947C56.3611 392.908 58.1344 391.105 60.0259 387.987C61.9174 384.869 70.8132 342.813 72.8229 331.006C74.8326 319.199 82.9453 193.401 82.9453 193.401C82.9453 193.401 83.2556 190.727 77.8619 188.347C73.4288 186.353 51.6768 185.392 44.6428 185.156C42.9663 185.08 41.3139 185.577 39.9575 186.565C38.6012 187.554 37.6217 188.974 37.1804 190.594C37.1804 190.594 37.1804 190.712 37.1804 190.756C35.8356 196.179 15.6352 329.987 15.6352 329.987Z" fill="white"/>
</mask>
<g mask="url(#mask0_6_483)">
<path opacity="0.5" d="M47.7609 395.568C48.7664 395.474 49.7579 395.265 50.7163 394.947C56.3907 392.908 58.1049 391.105 59.9964 387.987C61.8878 384.869 70.7837 342.813 72.7934 331.006C74.8031 319.199 82.9158 193.401 82.9158 193.401C82.9158 193.401 83.2261 190.727 77.8324 188.347C77.3113 188.129 76.7724 187.956 76.2217 187.83C75.0543 217.015 71.1088 251.668 64.1783 292.837C57.7059 331.789 50.3616 378.87 47.7609 395.568Z" fill="#333333"/>
</g>
<path d="M15.6352 329.987C15.6352 329.987 13.8176 368.053 14.0245 378.603C14.2314 389.154 14.4826 393.1 19.7137 394.031C24.9449 394.962 45.1305 396.986 50.7458 394.947C56.3611 392.908 58.1344 391.105 60.0259 387.987C61.9174 384.869 70.8132 342.813 72.8229 331.006C74.8326 319.199 82.9453 193.401 82.9453 193.401C82.9453 193.401 83.2556 190.727 77.8619 188.347C73.4288 186.353 51.6768 185.392 44.6428 185.156C42.9663 185.08 41.3139 185.577 39.9575 186.565C38.6012 187.554 37.6217 188.974 37.1804 190.594C37.1804 190.594 37.1804 190.712 37.1804 190.756C35.8356 196.179 15.6352 329.987 15.6352 329.987Z" stroke="#333333" stroke-linecap="round" stroke-linejoin="round"/>
<path d="M56.9226 334.405C50.6128 334.405 23.4375 331.538 19.226 330.637C18.0272 330.388 16.8432 330.072 15.6795 329.691V329.987C15.6795 329.987 13.8619 368.053 14.0688 378.604C14.2757 389.154 14.5269 393.1 19.758 394.031C24.9891 394.962 45.1747 396.986 50.7901 394.947C56.4054 392.908 58.1787 391.105 60.0701 387.987C61.9616 384.869 70.4142 345.133 72.6899 332.041C67.3701 334.804 62.1094 334.361 56.9226 334.405Z" fill="#333333"/>
<mask id="mask1_6_483" style="mask-type:luminance" maskUnits="userSpaceOnUse" x="14" y="329" width="59" height="67">
<path d="M56.9226 334.405C50.6128 334.405 23.4375 331.538 19.226 330.637C18.0272 330.388 16.8432 330.072 15.6795 329.691V329.987C15.6795 329.987 13.8619 368.053 14.0688 378.604C14.2757 389.154 14.5269 393.1 19.758 394.031C24.9891 394.962 45.1747 396.986 50.7901 394.947C56.4054 392.908 58.1787 391.105 60.0701 387.987C61.9616 384.869 70.4142 345.133 72.6899 332.041C67.3701 334.804 62.1094 334.361 56.9226 334.405Z" fill="white"/>
</mask>
<g mask="url(#mask1_6_483)">
<path opacity="0.5" d="M47.7608 395.568C48.7663 395.474 49.7579 395.265 50.7162 394.947C56.3907 392.908 58.1048 391.105 59.9963 387.987C61.8878 384.869 70.7836 342.813 72.7933 331.006C74.803 319.199 82.9157 193.401 82.9157 193.401C82.9157 193.401 83.226 190.727 77.8324 188.347C77.3112 188.129 76.7723 187.956 76.2216 187.83C75.0542 217.015 71.1087 251.668 64.1783 292.837C57.7058 331.789 50.3616 378.87 47.7608 395.568Z" fill="#333333"/>
<path opacity="0.26" d="M56.9817 337.922C61.132 337.745 65.2502 337.111 69.2615 336.03" stroke="#EEEEEE" stroke-linecap="round" stroke-linejoin="round"/>
<path d="M17.7928 333.563C17.7928 333.563 51.1449 338.129 56.9819 337.922" stroke="#EEEEEE" stroke-linecap="round" stroke-linejoin="round"/>
</g>
<path d="M56.9226 334.405C50.6127 334.405 23.4375 331.538 19.226 330.637C18.0272 330.388 16.8432 330.072 15.6795 329.691V329.987C15.6795 329.987 13.8619 368.053 14.0688 378.604C14.2757 389.154 14.5269 393.1 19.758 394.031C24.9891 394.962 45.1747 396.986 50.7901 394.947C56.4054 392.908 58.1787 391.105 60.0701 387.987C61.9616 384.869 70.4142 345.133 72.6899 332.041C67.3701 334.804 62.1094 334.361 56.9226 334.405Z" stroke="#333333" stroke-linecap="round" stroke-linejoin="round"/>
<path d="M491.532 178.32C522.592 162.145 534.658 123.852 518.483 92.7923C502.307 61.7322 464.015 49.666 432.955 65.8418C401.894 82.0175 389.828 120.31 406.004 151.37C422.18 182.43 460.472 194.496 491.532 178.32Z" fill="#333333" stroke="#333333" stroke-linecap="round" stroke-linejoin="round"/>
<path d="M520.427 123.613C524.749 88.8615 500.081 57.1854 465.329 52.863C430.577 48.5406 398.901 73.2086 394.579 107.961C390.256 142.713 414.924 174.389 449.676 178.711C484.428 183.033 516.104 158.365 520.427 123.613Z" fill="#EEEEEE" stroke="#333333" stroke-linecap="round" stroke-linejoin="round"/>
<path d="M513.872 125.055C518.986 93.9292 497.899 64.5513 466.773 59.4375C435.647 54.3237 406.269 75.4106 401.155 106.536C396.042 137.662 417.128 167.04 448.254 172.154C479.38 177.268 508.758 156.181 513.872 125.055Z" fill="#333333" stroke="#333333" stroke-linecap="round" stroke-linejoin="round"/>
<path d="M450.823 72.8638C450.823 72.8638 444.528 57.1114 433.49 46.0433C422.451 34.9751 377.573 27.9264 377.573 27.9264C384.82 34.9223 391.409 42.5697 397.256 50.7719C407.497 64.9433 441.381 97.2462 441.381 97.2462C441.381 97.2462 424.83 83.0601 409.861 81.4937C394.892 79.9273 357.092 87.7888 354.727 87.7888C352.363 87.7888 368.899 94.0986 380.72 99.6105C392.542 105.122 438.218 109.851 438.218 109.851C438.218 109.851 418.535 115.363 405.132 120.092C391.729 124.82 379.139 159.473 379.139 159.473C379.139 159.473 396.473 143.72 411.442 139.775C426.411 135.829 447.676 128.795 447.676 128.795C447.676 128.795 434.288 143.765 431.14 154.005C427.993 164.246 430.342 187.875 430.342 187.875C430.342 187.875 437.435 165.812 446.095 157.153C454.754 148.493 464.211 133.509 464.211 133.509C468.575 140.624 472.523 147.985 476.033 155.557C482.328 168.96 486.274 188.643 486.274 188.643C486.274 188.643 496.514 166.595 495.731 155.557C494.948 144.518 483.141 124.85 483.141 124.85C483.141 124.85 491.017 119.338 502.824 124.067C514.631 128.795 535.127 148.493 535.127 148.493C535.127 148.493 530.398 122.5 522.522 112.26C514.646 102.019 480.777 98.8569 480.777 98.8569C480.777 98.8569 499.677 87.8331 511.498 85.4688C523.32 83.1044 539.073 88.6163 539.073 88.6163C539.073 88.6163 520.941 63.4951 506.77 61.8401C492.598 60.185 471.304 82.3212 471.304 82.3212C471.304 82.3212 476.033 58.6777 477.614 50.8163C479.195 42.9548 476.033 23.2421 476.033 23.2421C476.033 23.2421 467.374 27.9708 457.133 42.94C454.129 47.2499 452.022 52.12 450.938 57.2608C449.854 62.4015 449.815 67.7078 450.823 72.8638Z" fill="#40A578"/>
<path opacity="0.5" d="M450.823 72.8638C450.823 72.8638 444.528 57.1114 433.49 46.0433C422.451 34.9751 377.573 27.9264 377.573 27.9264C384.82 34.9223 391.409 42.5697 397.256 50.7719C407.497 64.9433 441.381 97.2462 441.381 97.2462C441.381 97.2462 424.83 83.0601 409.861 81.4937C394.892 79.9273 357.092 87.7888 354.727 87.7888C352.363 87.7888 368.899 94.0986 380.72 99.6105C392.542 105.122 438.218 109.851 438.218 109.851C438.218 109.851 418.535 115.363 405.132 120.092C391.729 124.82 379.139 159.473 379.139 159.473C379.139 159.473 396.473 143.72 411.442 139.775C426.411 135.829 447.676 128.795 447.676 128.795C447.676 128.795 434.288 143.765 431.14 154.005C427.993 164.246 430.342 187.875 430.342 187.875C430.342 187.875 437.435 165.812 446.095 157.153C454.754 148.493 464.211 133.509 464.211 133.509C468.575 140.624 472.523 147.985 476.033 155.557C482.328 168.96 486.274 188.643 486.274 188.643C486.274 188.643 496.514 166.595 495.731 155.557C494.948 144.518 483.141 124.85 483.141 124.85C483.141 124.85 491.017 119.338 502.824 124.067C514.631 128.795 535.127 148.493 535.127 148.493C535.127 148.493 530.398 122.5 522.522 112.26C514.646 102.019 480.777 98.8569 480.777 98.8569C480.777 98.8569 499.677 87.8331 511.498 85.4688C523.32 83.1044 539.073 88.6163 539.073 88.6163C539.073 88.6163 520.941 63.4951 506.77 61.8401C492.598 60.185 471.304 82.3212 471.304 82.3212C471.304 82.3212 476.033 58.6777 477.614 50.8163C479.195 42.9548 476.033 23.2421 476.033 23.2421C476.033 23.2421 467.374 27.9708 457.133 42.94C454.129 47.2499 452.022 52.12 450.938 57.2608C449.854 62.4015 449.815 67.7078 450.823 72.8638Z" fill="#333333"/>
<path d="M466.339 48.8952C466.886 46.6195 467.492 44.3734 468.157 42.142" stroke="#333333" stroke-width="0.5" stroke-linecap="round" stroke-linejoin="round"/>
<path d="M413.688 48.8804C421.077 54.2741 430.283 61.6775 435.026 68.0908C443.686 79.9125 461.02 105.122 461.02 105.122C460.527 88.1959 461.87 71.2659 465.024 54.6288" stroke="#333333" stroke-width="0.5" stroke-linecap="round" stroke-linejoin="round"/>
<path d="M402.783 41.3589C402.783 41.3589 405.073 42.8367 408.516 45.1862" stroke="#333333" stroke-width="0.5" stroke-linecap="round" stroke-linejoin="round"/>
<path d="M461.064 105.152C461.064 105.152 491.002 75.2133 503.607 72.849C516.212 70.4846 527.251 79.942 527.251 79.942" stroke="#333333" stroke-width="0.5" stroke-linecap="round" stroke-linejoin="round"/>
<path d="M407.57 130.273C400.285 134.913 399.62 137.529 399.62 137.529" stroke="#333333" stroke-width="0.5" stroke-linecap="round" stroke-linejoin="round"/>
<path d="M526.453 132.741C526.453 132.741 521.724 120.919 505.174 115.407C488.623 109.895 462.645 109.097 462.645 109.097C462.645 109.097 426.19 121.037 412.861 127.259" stroke="#333333" stroke-width="0.5" stroke-linecap="round" stroke-linejoin="round"/>
<path d="M446.73 104.605C455.596 107.162 462.645 109.038 462.645 109.038" stroke="#333333" stroke-width="0.5" stroke-linecap="round" stroke-linejoin="round"/>
<path d="M391.242 90.6112C399.798 91.1284 410.821 92.2958 416.954 94.9261C421.949 97.0688 431.805 100.172 441.085 102.935" stroke="#333333" stroke-width="0.5" stroke-linecap="round" stroke-linejoin="round"/>
<path d="M379.139 90.1974C379.139 90.1974 382.021 90.1974 386.277 90.36" stroke="#333333" stroke-width="0.5" stroke-linecap="round" stroke-linejoin="round"/>
<path d="M461.064 113.826C461.064 113.826 439.016 146.912 437.42 154.789C436.473 159.461 435.943 164.208 435.839 168.975" stroke="#333333" stroke-width="0.5" stroke-linecap="round" stroke-linejoin="round"/>
<path d="M470.876 124.244C475.117 129.726 480.215 137.026 482.328 142.981C484.819 150.153 486.669 157.531 487.855 165.029" stroke="#333333" stroke-width="0.5" stroke-linecap="round" stroke-linejoin="round"/>
<path d="M464.211 116.19C464.211 116.19 465.97 118.141 468.408 121.141" stroke="#333333" stroke-width="0.5" stroke-linecap="round" stroke-linejoin="round"/>
<path d="M440.819 79.6613C440.819 79.6613 436.741 63.1848 439.268 47.787C441.794 32.3891 474.142 0.5 474.142 0.5C472.328 10.4104 471.433 20.467 471.467 30.542C471.467 48.0382 462.734 94.0839 462.734 94.0839C462.734 94.0839 467.906 72.9082 479.151 62.904C490.397 52.8999 525.684 37.1769 527.606 35.6992C529.527 34.2215 519.774 49.0874 513.39 60.4658C507.006 71.8442 472.649 102.315 472.649 102.315C472.649 102.315 491.86 95.3104 505.499 91.3353C519.138 87.3602 549.638 108.226 549.638 108.226C549.638 108.226 526.379 105.536 511.927 111.063C497.475 116.589 476.063 123.239 476.063 123.239C476.063 123.239 495.672 127.598 504.139 134.071C512.607 140.543 524.517 161.128 524.517 161.128C524.517 161.128 505.898 147.341 493.81 145.361C481.722 143.381 465.305 136.731 465.305 136.731C465.92 145.057 467.01 153.34 468.571 161.542C471.26 176.097 479.55 194.391 479.55 194.391C479.55 194.391 458.374 182.451 452.582 173.024C446.789 163.596 444.898 140.721 444.898 140.721C444.898 140.721 435.278 140.839 428.436 151.567C421.594 162.295 416.452 190.239 416.452 190.239C416.452 190.239 405.117 166.374 405.546 153.459C405.975 140.543 431.657 118.23 431.657 118.23C431.657 118.23 409.861 120.299 398.882 125.264C387.902 130.229 378.326 143.912 378.326 143.912C378.326 143.912 378.326 112.88 388.936 103.32C399.546 93.7587 429.692 99.2411 429.692 99.2411L406.196 77.3118C400.285 71.8442 391.419 54.0081 391.419 54.0081C391.419 54.0081 401.202 52.7816 418.254 58.9733C423.213 60.7288 427.766 63.4655 431.643 67.02C435.52 70.5745 438.641 74.8739 440.819 79.6613Z" fill="#40A578"/>
<path d="M414.235 69.2286C412.462 67.7017 410.659 66.2239 408.827 64.7955" stroke="#333333" stroke-width="0.5" stroke-linecap="round" stroke-linejoin="round"/>
<path d="M456.956 38.5364C454.104 47.2106 450.941 58.6038 450.853 66.6131C450.705 81.2573 451.34 111.846 451.34 111.846C441.872 97.8048 430.907 84.8332 418.639 73.1594" stroke="#333333" stroke-width="0.5" stroke-linecap="round" stroke-linejoin="round"/>
<path d="M461.478 26.0349C461.478 26.0349 460.443 28.5618 459.039 32.4925" stroke="#333333" stroke-width="0.5" stroke-linecap="round" stroke-linejoin="round"/>
<path d="M451.34 111.861C451.34 111.861 409.565 105.004 397.951 110.383C386.336 115.762 382.893 129.919 382.893 129.919" stroke="#333333" stroke-width="0.5" stroke-linecap="round" stroke-linejoin="round"/>
<path d="M509.4 100.985C518.03 100.512 520.084 102.256 520.084 102.256" stroke="#333333" stroke-width="0.5" stroke-linecap="round" stroke-linejoin="round"/>
<path d="M414.309 172.388C414.309 172.388 411.265 160.034 421.476 145.907C431.687 131.78 452.36 115.984 452.36 115.984C452.36 115.984 488.919 104.413 503.386 101.694" stroke="#333333" stroke-width="0.5" stroke-linecap="round" stroke-linejoin="round"/>
<path d="M462.66 103.054C457 110.265 452.316 115.984 452.316 115.984" stroke="#333333" stroke-width="0.5" stroke-linecap="round" stroke-linejoin="round"/>
<path d="M499.573 59.3427C492.909 64.7512 484.648 72.125 481.19 77.8438C478.383 82.4986 472.206 90.7738 466.28 98.4284" stroke="#333333" stroke-width="0.5" stroke-linecap="round" stroke-linejoin="round"/>
<path d="M509.149 51.9541C509.149 51.9541 506.814 53.6239 503.46 56.2395" stroke="#333333" stroke-width="0.5" stroke-linecap="round" stroke-linejoin="round"/>
<path d="M456.394 118.895C456.394 118.895 493.603 132.904 499.485 138.386C502.971 141.631 506.165 145.176 509.031 148.981" stroke="#333333" stroke-width="0.5" stroke-linecap="round" stroke-linejoin="round"/>
<path d="M454.503 133.066C454.252 140.011 454.37 148.922 456.114 154.981C458.279 162.259 461.088 169.331 464.507 176.112" stroke="#333333" stroke-width="0.5" stroke-linecap="round" stroke-linejoin="round"/>
<path d="M455.212 122.663C455.212 122.663 454.917 125.249 454.695 129.121" stroke="#333333" stroke-width="0.5" stroke-linecap="round" stroke-linejoin="round"/>
<path opacity="0.3" d="M470.152 442.559C467.315 434.565 466.812 392.627 467.448 362.762L484.042 366.353C486.924 366.977 489.934 366.531 492.51 365.097C493.136 364.748 493.73 364.342 494.283 363.885C494.824 363.444 495.319 362.949 495.761 362.408C497.333 360.668 498.361 358.505 498.716 356.187C498.777 355.775 498.817 355.361 498.834 354.945C498.948 352.549 498.346 350.172 497.106 348.118C496.703 347.45 496.238 346.822 495.716 346.242C493.824 344.141 491.258 342.767 488.461 342.355L468.423 339.4C468.6 336.799 468.807 334.774 469.014 333.489C469.373 331.54 469.521 329.558 469.457 327.578L470.832 323.145C472.856 316.658 471.319 307.112 465.807 301.688C460.296 296.265 440.686 286.719 434.953 281.71C429.219 276.7 386.291 246.126 378.593 247.929C370.894 249.732 361.791 260.711 354.033 266.785C346.275 272.858 318.331 295.777 318.331 295.777C318.42 294.817 303.968 300.654 300.451 306.314C300.186 306.567 299.981 306.876 299.851 307.219C299.72 307.561 299.668 307.928 299.697 308.294C300.11 309.904 300.91 311.39 302.028 312.621C303.146 313.852 304.547 314.791 306.11 315.357L293.579 313.51C292.87 313.406 292.146 313.506 291.491 313.799C290.837 314.093 290.28 314.566 289.885 315.165C285.452 314.5 276.408 313.51 269.877 315.298C269.877 315.298 280.531 320.514 288.496 322.258C288.706 322.875 289.073 323.426 289.56 323.858C290.047 324.291 290.637 324.59 291.274 324.726L307.899 328.287C307.593 329.253 307.366 330.241 307.219 331.243C307.101 332.156 307.228 333.084 307.588 333.932C307.662 334.494 307.766 335.07 307.899 335.676C310.263 345.724 323.03 357.93 332.34 365.999C341.65 374.067 350.56 387.884 356.087 403.902C361.614 419.921 365.071 434.683 377.366 450.938C379.458 453.685 381.734 456.287 384.178 458.725L498.805 531.134C498.805 531.134 474.275 454.307 470.152 442.559ZM320.592 316.539C320.4 316.835 320.208 317.131 320.045 317.441L316.883 316.968C318.128 316.913 319.367 316.769 320.592 316.539Z" fill="#333333"/>
<path d="M431.657 570.5L358.481 444.007C358.481 444.007 350.294 386.539 332.842 363.413C315.391 340.286 290.919 323.411 305.12 311.589C319.321 299.767 355.363 277.158 362.751 278.606C370.14 280.055 419.88 305.205 433.933 309.269C447.986 313.333 452.907 319.303 450.809 331.435C448.71 343.567 447.853 428.639 452.006 440.387C456.158 452.135 502.351 535.862 502.351 535.862" fill="#EEEEEE"/>
<mask id="mask2_6_483" style="mask-type:luminance" maskUnits="userSpaceOnUse" x="300" y="278" width="203" height="293">
<path d="M431.657 570.5L358.481 444.007C358.481 444.007 350.294 386.539 332.842 363.413C315.391 340.286 290.919 323.411 305.12 311.589C319.321 299.767 355.363 277.158 362.751 278.606C370.14 280.055 419.88 305.205 433.933 309.269C447.986 313.333 452.907 319.303 450.809 331.435C448.71 343.567 447.853 428.639 452.006 440.387C456.158 452.135 502.351 535.862 502.351 535.862" fill="white"/>
</mask>
<g mask="url(#mask2_6_483)">
<path d="M452.109 440.416C447.927 428.669 448.814 343.626 450.912 331.464C452.198 324.076 450.838 318.919 446.361 315.209C446.521 321.949 445.423 328.659 443.124 334.996C439.179 346.182 437.214 354.073 437.214 354.073C437.214 354.073 436.563 394.193 439.194 414.66C441.824 435.126 454.976 471.227 467.477 490.969C476.728 505.569 489.924 518.721 496.175 524.587C483.318 501.18 455.242 449.46 452.109 440.416Z" fill="#40A578"/>
<path opacity="0.5" d="M452.109 440.416C447.927 428.669 448.814 343.626 450.912 331.464C452.198 324.076 450.838 318.919 446.361 315.209C446.521 321.949 445.423 328.659 443.124 334.996C439.179 346.182 437.214 354.073 437.214 354.073C437.214 354.073 436.563 394.193 439.194 414.66C441.824 435.126 454.976 471.227 467.477 490.969C476.728 505.569 489.924 518.721 496.175 524.587C483.318 501.18 455.242 449.46 452.109 440.416Z" fill="#EEEEEE"/>
</g>
<path d="M431.657 570.5L358.481 444.007C358.481 444.007 350.294 386.539 332.842 363.413C315.391 340.286 290.919 323.411 305.12 311.589C319.321 299.767 355.363 277.158 362.751 278.606C370.14 280.055 419.88 305.205 433.933 309.269C447.986 313.333 452.907 319.303 450.809 331.435C448.71 343.567 447.853 428.639 452.006 440.387C456.158 452.135 502.351 535.862 502.351 535.862" stroke="#333333" stroke-miterlimit="10" stroke-linecap="round"/>
<path d="M285.836 313.865C297.313 313.231 308.425 309.603 318.065 303.343C334.512 292.822 329.251 290.842 329.251 290.842C329.251 290.842 337.793 288.212 343.053 286.246C347.463 284.278 351.654 281.851 355.555 279.005C355.555 279.005 376.612 292.822 386.469 296.738C391.189 298.743 396.049 300.402 401.009 301.703L414.767 319.761C407.032 323.409 400.437 329.095 395.69 336.208C387.799 348.03 377.957 363.826 373.317 365.762C368.677 367.698 370.687 369.708 350.294 361.817C329.902 353.926 284.521 325.716 285.836 313.865Z" fill="#40A578"/>
<path opacity="0.5" d="M285.836 313.865C297.313 313.231 308.425 309.603 318.065 303.343C334.512 292.822 329.251 290.842 329.251 290.842C329.251 290.842 337.793 288.212 343.053 286.246C347.463 284.278 351.654 281.851 355.555 279.005C355.555 279.005 376.612 292.822 386.469 296.738C391.189 298.743 396.049 300.402 401.009 301.703L414.767 319.761C407.032 323.409 400.437 329.095 395.69 336.208C387.799 348.03 377.957 363.826 373.317 365.762C368.677 367.698 370.687 369.708 350.294 361.817C329.902 353.926 284.521 325.716 285.836 313.865Z" fill="#EEEEEE"/>
<path d="M322.277 319.938C322.277 319.938 338.088 317.988 349.23 297.699C349.23 297.699 362.352 303.255 376.006 299.693" stroke="#333333" stroke-miterlimit="10" stroke-linecap="round"/>
<path d="M365.145 305.264C365.145 305.264 357.52 325.45 373.598 352.152" stroke="#333333" stroke-miterlimit="10" stroke-linecap="round"/>
<path d="M348.255 307.112C348.255 307.112 356.22 316.909 357.52 325.45" stroke="#333333" stroke-miterlimit="10" stroke-linecap="round"/>
<path d="M363.165 361.595C363.165 361.595 376.464 353.187 383.543 344.439C390.621 335.691 393.813 326.47 404.97 322.79" stroke="#333333" stroke-miterlimit="10" stroke-linecap="round"/>
<path d="M349.23 297.698L345.994 293.871" stroke="#333333" stroke-miterlimit="10" stroke-linecap="round"/>
<path d="M274.458 313.51C274.458 313.51 260.715 310.732 251.76 313.185C251.76 313.185 264.941 319.643 272.936 320.574L274.458 313.51Z" fill="#333333" stroke="#333333" stroke-miterlimit="10" stroke-linecap="round"/>
<path d="M470.285 340.316L275.462 311.367C274.533 311.229 273.586 311.442 272.805 311.963C272.024 312.485 271.465 313.279 271.236 314.19L270.35 317.943C270.223 318.436 270.197 318.949 270.274 319.451C270.351 319.954 270.528 320.435 270.796 320.868C271.064 321.3 271.416 321.673 271.832 321.966C272.248 322.258 272.719 322.463 273.216 322.569L465.985 364.24C467.613 364.592 469.295 364.606 470.929 364.281C472.563 363.957 474.112 363.3 475.482 362.353C476.852 361.406 478.013 360.187 478.893 358.773C479.773 357.359 480.354 355.78 480.599 354.133C480.831 352.548 480.749 350.933 480.355 349.38C479.962 347.827 479.267 346.368 478.309 345.084C477.351 343.801 476.149 342.719 474.772 341.901C473.395 341.082 471.87 340.544 470.285 340.316Z" fill="#40A578" stroke="#333333" stroke-miterlimit="10" stroke-linecap="round"/>
<path d="M470.285 340.316L440.834 335.883C438.145 337.513 436.046 339.958 434.842 342.862C433.638 345.767 433.392 348.98 434.14 352.034C434.637 354.19 435.606 356.209 436.977 357.945L465.926 364.196C467.554 364.548 469.236 364.562 470.87 364.237C472.504 363.912 474.053 363.256 475.423 362.309C476.793 361.361 477.954 360.143 478.834 358.729C479.714 357.315 480.295 355.736 480.54 354.088C480.997 350.903 480.175 347.667 478.253 345.087C476.332 342.506 473.467 340.791 470.285 340.316Z" fill="#333333" stroke="#333333" stroke-miterlimit="10" stroke-linecap="round"/>
<path d="M391.434 358.492C391.434 358.492 374.676 362.423 367.184 360.649C359.692 358.876 344.398 337.361 333.891 330.282C323.385 323.204 316.986 321.519 305.992 319.864C294.998 318.209 287.402 323.514 289.737 333.578C292.072 343.641 304.854 355.832 314.179 363.9C323.503 371.969 332.399 385.771 337.926 401.804C343.452 417.837 346.91 432.57 359.205 448.766C371.499 464.961 386.838 471.626 391.995 472.527" fill="#EEEEEE"/>
<mask id="mask3_6_483" style="mask-type:luminance" maskUnits="userSpaceOnUse" x="289" y="319" width="103" height="154">
<path d="M391.434 358.492C391.434 358.492 374.676 362.423 367.184 360.649C359.692 358.876 344.398 337.361 333.891 330.282C323.385 323.204 316.986 321.519 305.992 319.864C294.998 318.209 287.402 323.514 289.737 333.578C292.072 343.641 304.854 355.832 314.179 363.9C323.503 371.969 332.399 385.771 337.926 401.804C343.452 417.837 346.91 432.57 359.205 448.766C371.499 464.961 386.838 471.626 391.995 472.527" fill="white"/>
</mask>
<g mask="url(#mask3_6_483)">
<path d="M383.114 360.871L381.932 360.265C376.849 361.004 370.894 361.521 367.155 360.649C359.678 358.876 344.368 337.36 333.877 330.282C323.385 323.204 316.972 321.519 305.977 319.864C304.223 319.592 302.444 319.512 300.672 319.628C309.147 321.755 317.16 325.416 324.316 330.43C336.019 338.883 344.472 360.324 357.461 364.225C370.45 368.127 383.114 360.871 383.114 360.871Z" fill="#40A578"/>
<path opacity="0.5" d="M383.114 360.871L381.932 360.265C376.849 361.004 370.894 361.521 367.155 360.649C359.678 358.876 344.368 337.36 333.877 330.282C323.385 323.204 316.972 321.519 305.977 319.864C304.223 319.592 302.444 319.512 300.672 319.628C309.147 321.755 317.16 325.416 324.316 330.43C336.019 338.883 344.472 360.324 357.461 364.225C370.45 368.127 383.114 360.871 383.114 360.871Z" fill="#EEEEEE"/>
</g>
<path d="M391.434 358.492C391.434 358.492 374.676 362.423 367.184 360.649C359.692 358.876 344.398 337.361 333.891 330.282C323.385 323.204 316.986 321.519 305.992 319.864C294.998 318.209 287.402 323.514 289.737 333.578C292.072 343.641 304.854 355.832 314.179 363.9C323.503 371.969 332.399 385.771 337.926 401.804C343.452 417.837 346.91 432.57 359.205 448.766C371.499 464.961 386.838 471.626 391.995 472.527" stroke="#333333" stroke-miterlimit="10" stroke-linecap="round"/>
<path d="M298.19 340.789C298.19 340.789 298.988 332.115 310.869 324.031C310.869 324.031 302.933 318.815 297.495 319.746C292.057 320.677 289.915 323.647 289.087 329.144C288.26 334.641 298.19 340.789 298.19 340.789Z" fill="#EEEEEE" stroke="#333333" stroke-miterlimit="10" stroke-linecap="round"/>
<path d="M305.992 349.995C306.905 350.915 307.927 351.719 309.036 352.389" stroke="#333333" stroke-miterlimit="10" stroke-linecap="round"/>
<path d="M314.681 329.499C314.681 329.499 302.061 336.001 304.086 346.138" stroke="#333333" stroke-miterlimit="10" stroke-linecap="round"/>
<path d="M450.631 327.622L452.641 321.135C454.651 314.663 453.129 305.117 447.617 299.693C442.105 294.27 422.495 284.724 416.762 279.715C411.028 274.705 368.115 244.057 360.49 245.934C352.865 247.811 343.689 258.716 335.916 264.775C328.143 270.834 300.273 293.65 300.273 293.65C300.273 293.65 280.694 302.132 281.58 306.122C282.467 310.111 286.531 315.209 298.811 314.811C311.09 314.412 331.557 302.176 334.66 300.373C337.763 298.57 357.077 285.921 357.077 285.921C362.079 290.87 367.822 295.008 374.1 298.186C383.218 302.412 384.444 302.841 384.444 302.841C384.444 302.841 386.823 311.486 393.517 315.919" fill="#EEEEEE"/>
<mask id="mask4_6_483" style="mask-type:luminance" maskUnits="userSpaceOnUse" x="281" y="245" width="173" height="83">
<path d="M450.631 327.622L452.641 321.135C454.651 314.663 453.129 305.117 447.617 299.693C442.105 294.27 422.495 284.724 416.762 279.715C411.028 274.705 368.115 244.057 360.49 245.934C352.865 247.811 343.689 258.716 335.916 264.775C328.143 270.834 300.273 293.65 300.273 293.65C300.273 293.65 280.694 302.132 281.58 306.122C282.467 310.111 286.531 315.209 298.811 314.811C311.09 314.412 331.557 302.176 334.66 300.373C337.763 298.57 357.077 285.921 357.077 285.921C362.079 290.87 367.822 295.008 374.1 298.186C383.218 302.412 384.444 302.841 384.444 302.841C384.444 302.841 386.823 311.486 393.517 315.919" fill="white"/>
</mask>
<g mask="url(#mask4_6_483)">
<path d="M439.755 300.048C446.848 305.619 447.306 316.658 445.341 326.544L450.646 327.622L452.656 321.135C454.665 314.663 453.143 305.117 447.631 299.693C442.12 294.27 422.51 284.724 416.777 279.715C415.299 278.414 411.22 275.355 405.945 271.602L404.896 271.765C404.896 271.765 430.549 292.822 439.755 300.048Z" fill="#40A578"/>
<path opacity="0.5" d="M439.755 300.048C446.848 305.619 447.306 316.658 445.341 326.544L450.646 327.622L452.656 321.135C454.665 314.663 453.143 305.117 447.631 299.693C442.12 294.27 422.51 284.724 416.777 279.715C415.299 278.414 411.22 275.355 405.945 271.602L404.896 271.765C404.896 271.765 430.549 292.822 439.755 300.048Z" fill="#EEEEEE"/>
<path d="M285.836 313.865C297.313 313.231 308.425 309.603 318.065 303.343C334.512 292.822 329.251 290.842 329.251 290.842C329.251 290.842 337.793 288.212 343.053 286.246C347.463 284.278 351.654 281.851 355.555 279.005C355.555 279.005 376.612 292.822 386.469 296.738C391.189 298.743 396.049 300.402 401.009 301.703L414.767 319.761C407.032 323.409 400.437 329.095 395.69 336.208C387.799 348.03 377.957 363.826 373.317 365.762C368.677 367.698 370.687 369.708 350.294 361.817C329.902 353.926 284.521 325.716 285.836 313.865Z" fill="#40A578"/>
<path opacity="0.5" d="M285.836 313.865C297.313 313.231 308.425 309.603 318.065 303.343C334.512 292.822 329.251 290.842 329.251 290.842C329.251 290.842 337.793 288.212 343.053 286.246C347.463 284.278 351.654 281.851 355.555 279.005C355.555 279.005 376.612 292.822 386.469 296.738C391.189 298.743 396.049 300.402 401.009 301.703L414.767 319.761C407.032 323.409 400.437 329.095 395.69 336.208C387.799 348.03 377.957 363.826 373.317 365.762C368.677 367.698 370.687 369.708 350.294 361.817C329.902 353.926 284.521 325.716 285.836 313.865Z" fill="#EEEEEE"/>
</g>
<path d="M450.631 327.622L452.641 321.135C454.651 314.663 453.129 305.117 447.617 299.693C442.105 294.27 422.495 284.724 416.762 279.715C411.028 274.705 368.115 244.057 360.49 245.934C352.865 247.811 343.689 258.716 335.916 264.775C328.143 270.834 300.273 293.65 300.273 293.65C300.273 293.65 280.694 302.132 281.58 306.122C282.467 310.111 286.531 315.209 298.811 314.811C311.09 314.412 331.557 302.176 334.66 300.373C337.763 298.57 357.077 285.921 357.077 285.921C362.079 290.87 367.822 295.008 374.1 298.186C383.218 302.412 384.444 302.841 384.444 302.841C384.444 302.841 386.823 311.486 393.517 315.919" stroke="#333333" stroke-miterlimit="10" stroke-linecap="round"/>
<path d="M281.58 306.121C281.58 306.121 283.56 307.067 287.757 305.383C291.954 303.698 300.111 294.714 300.2 293.561C300.288 292.408 282.245 299.989 281.58 306.121Z" fill="#EEEEEE" stroke="#333333" stroke-miterlimit="10" stroke-linecap="round"/>
<path d="M356.294 271.617C356.48 270.734 356.712 269.861 356.988 269.001" stroke="#333333" stroke-miterlimit="10" stroke-linecap="round"/>
<path d="M357.077 285.951C355.95 282.402 355.524 278.668 355.821 274.956" stroke="#333333" stroke-miterlimit="10" stroke-linecap="round"/>
</svg>
