<svg width="40" height="40" viewBox="0 0 40 40" fill="none" xmlns="http://www.w3.org/2000/svg">
<mask id="path-1-inside-1_5_47" fill="white">
<path fill-rule="evenodd" clip-rule="evenodd" d="M40 10C40 4.47715 35.5228 0 30 0H10C4.47715 0 0 4.47715 0 10V30C0 35.5228 4.47715 40 10 40V40C15.5228 40 20 35.5228 20 30V30C20 24.4772 24.4772 20 30 20V20C35.5228 20 40 15.5228 40 10V10Z"/>
</mask>
<path d="M10 5H30V-5H10V5ZM5 30V10H-5V30H5ZM30 25C38.2843 25 45 18.2843 45 10H35C35 12.7614 32.7614 15 30 15V25ZM25 30C25 27.2386 27.2386 25 30 25V15C21.7157 15 15 21.7157 15 30H25ZM10 45C18.2843 45 25 38.2843 25 30H15C15 32.7614 12.7614 35 10 35V45ZM-5 30C-5 38.2843 1.71573 45 10 45V35C7.23858 35 5 32.7614 5 30H-5ZM30 5C32.7614 5 35 7.23858 35 10H45C45 1.71573 38.2843 -5 30 -5V5ZM10 -5C1.71573 -5 -5 1.71573 -5 10H5C5 7.23858 7.23858 5 10 5V-5Z" fill="#40A578" mask="url(#path-1-inside-1_5_47)"/>
<rect x="24.9" y="24.9" width="12.6" height="12.6" rx="6.3" stroke="#40A578" stroke-width="5"/>
</svg>
